<svg width="20" height="24" viewBox="0 0 20 24" fill="none" xmlns="http://www.w3.org/2000/svg">
<path fill-rule="evenodd" clip-rule="evenodd" d="M14.3891 0C14.5985 1.45772 14.0196 2.88588 13.256 3.89628C12.439 4.98004 11.0308 5.81823 9.66634 5.7745C9.41726 4.37888 10.055 2.94089 10.831 1.97423C11.6822 0.90738 13.141 0.0889015 14.3891 0ZM18.4878 20.5184C19.1912 19.4135 19.454 18.856 20 17.6086C16.0286 16.0605 15.3923 10.2733 19.3226 8.05213C18.1238 6.51113 16.4392 5.61785 14.8489 5.61785C13.7031 5.61785 12.918 5.92432 12.2043 6.20295C11.6096 6.4352 11.0643 6.64806 10.4013 6.64806C9.68468 6.64806 9.0501 6.41478 8.38568 6.17066C7.65551 5.90228 6.88935 5.62067 5.93852 5.62067C4.15402 5.62067 2.25452 6.73834 1.05019 8.64911C-0.642643 11.3402 -0.353893 16.3992 2.39135 20.7089C3.3726 22.2514 4.6836 23.9843 6.39835 23.9998C7.10985 24.007 7.58335 23.7894 8.09568 23.5538C8.68218 23.2842 9.31951 22.9911 10.4232 22.9852C11.5333 22.9783 12.1606 23.2749 12.7393 23.5485C13.2385 23.7845 13.7014 24.0034 14.4069 23.9956C16.123 23.9815 17.5066 22.0609 18.4878 20.5184Z" fill="#47A1F1"/>
</svg>
