<svg width="17" height="16" viewBox="0 0 17 16" fill="none" xmlns="http://www.w3.org/2000/svg">
<path d="M4.0485 6.10539L4.0485 6.10539L4.0547 6.09416L4.05489 6.09381L4.18624 6.16626L4.0485 6.10539ZM4.0485 6.10539L4.04831 6.10575M4.0485 6.10539L4.04831 6.10575M4.04831 6.10575C3.92404 6.33251 4.00707 6.61714 4.23392 6.74144L4.04831 6.10575ZM4.87585 6.5446L4.87585 6.5446L4.86966 6.55582L4.86946 6.55617L4.73811 6.48373C4.68023 6.58936 4.5712 6.64912 4.45871 6.64912C4.407 6.64912 4.35458 6.63653 4.30603 6.60991L4.87585 6.5446ZM4.87585 6.5446L4.87604 6.54424M4.87585 6.5446L4.87604 6.54424M4.87604 6.54424C5.00033 6.31744 4.91718 6.03281 4.69041 5.90854L4.87604 6.54424Z" fill="#47A1F1" stroke="#47A1F1" stroke-width="0.3"/>
<mask id="path-2-outside-1_253_953" maskUnits="userSpaceOnUse" x="0" y="0" width="17" height="16" fill="black">
<rect fill="white" width="17" height="16"/>
<path d="M14.8038 7.05205C14.3033 5.104 12.9 3.48462 11.0065 2.72787C10.6795 1.70647 9.71775 1 8.63849 1C7.53163 1 6.59177 1.72721 6.2706 2.7288C5.13023 3.18556 4.15367 3.95608 3.43921 4.96553C2.98785 5.60328 2.66244 6.30828 2.4719 7.05214C1.65008 7.11352 1 7.80131 1 8.63852C1 9.47622 1.65073 10.1644 2.47321 10.2251C3.17998 12.9699 5.67611 15.004 8.63849 15.004C11.6008 15.004 14.097 12.9699 14.8037 10.2251C15.6262 10.1644 16.2769 9.47622 16.2769 8.63846C16.2769 7.80086 15.6262 7.1128 14.8038 7.05205ZM1.63659 8.63846C1.63659 8.19928 1.93476 7.82843 2.33924 7.71755C2.31191 7.90696 2.29287 8.09822 2.28255 8.29094C2.28237 8.29363 2.28228 8.29625 2.28213 8.29894C2.28028 8.33403 2.27864 8.36915 2.27738 8.40433C2.27688 8.41766 2.27661 8.431 2.27625 8.44434C2.27547 8.46958 2.27467 8.49479 2.27419 8.52007C2.2735 8.55954 2.27309 8.59902 2.27309 8.63849C2.27309 8.68668 2.27383 8.73484 2.27497 8.78306C2.2753 8.79815 2.27571 8.81319 2.27619 8.82823C2.2772 8.86329 2.27858 8.89835 2.28019 8.93338C2.28084 8.94824 2.28144 8.96313 2.28219 8.97802C2.28452 9.02176 2.28732 9.06544 2.29051 9.10912C2.29203 9.12965 2.29382 9.15006 2.2955 9.17053C2.29767 9.19643 2.29994 9.22236 2.30242 9.24823C2.3046 9.27102 2.30683 9.29385 2.30925 9.31656C2.31206 9.34317 2.31525 9.36976 2.31838 9.39631C2.32253 9.4311 2.32697 9.4658 2.33166 9.50039C2.33434 9.5202 2.33682 9.53998 2.33968 9.55967C1.93497 9.44895 1.63659 9.07788 1.63659 8.63846ZM8.63849 1.63659C9.26888 1.63659 9.84543 1.96033 10.1819 2.46706C10.1756 2.467 10.1693 2.46697 10.1629 2.46697C10.1588 2.46697 10.1548 2.46727 10.1507 2.4673C10.1491 2.46736 10.1475 2.46733 10.1459 2.46742C9.15486 2.47664 8.35151 3.2853 8.35151 4.27839C8.35151 4.66485 8.47292 5.03227 8.69107 5.33542C8.67355 5.3359 8.65598 5.33617 8.63849 5.33617C7.61855 5.33617 6.78876 4.50638 6.78876 3.48644C6.78873 2.46641 7.61852 1.63659 8.63849 1.63659ZM14.3653 8.78929C14.3651 8.79705 14.3646 8.80475 14.3644 8.81251C14.3631 8.85514 14.3615 8.89781 14.3593 8.94045C14.3589 8.94806 14.3583 8.95567 14.3579 8.96328C14.3554 9.00586 14.3527 9.04846 14.3494 9.09101C14.3488 9.0996 14.3478 9.10814 14.3471 9.11673C14.3437 9.15785 14.34 9.19893 14.3357 9.23996C14.3345 9.25139 14.3331 9.26276 14.3318 9.27416C14.3276 9.31175 14.3233 9.34929 14.3184 9.38679C14.3163 9.40249 14.314 9.41809 14.3118 9.43373C14.3073 9.46616 14.3027 9.49857 14.2976 9.53088C14.2943 9.55192 14.2907 9.5728 14.2872 9.59378C14.2828 9.61995 14.2784 9.64608 14.2736 9.67216C14.2688 9.69869 14.2636 9.72506 14.2584 9.75141C14.2545 9.77116 14.2506 9.79095 14.2465 9.81067C13.7041 12.4093 11.3957 14.3674 8.63843 14.3674C5.87916 14.3674 3.56936 12.4065 3.02912 9.80506C3.02422 9.78149 3.01972 9.75777 3.01515 9.73407C3.01074 9.71146 3.00623 9.68884 3.00211 9.66613C2.99626 9.63397 2.99092 9.60166 2.98561 9.56937C2.9832 9.55454 2.98054 9.53974 2.97824 9.52488C2.97192 9.484 2.96613 9.44307 2.96064 9.40204C2.95971 9.39509 2.95858 9.38817 2.95771 9.38121C2.95145 9.33291 2.94572 9.28445 2.94068 9.23599C2.94068 9.23578 2.94062 9.23552 2.94062 9.23531C2.92 9.03718 2.90959 8.83784 2.90959 8.63858C2.90959 8.59362 2.91033 8.54862 2.91141 8.50366C2.91179 8.48889 2.91224 8.47415 2.91272 8.45941C2.91364 8.42915 2.9149 8.3989 2.91633 8.36864C2.91713 8.35104 2.91791 8.3334 2.9189 8.31583C2.92042 8.28903 2.92233 8.26224 2.92421 8.23547C2.92752 8.18923 2.93125 8.14307 2.93563 8.09703C2.93614 8.09175 2.93656 8.08646 2.93707 8.08121C3.13268 6.10029 4.35952 4.34236 6.15241 3.47641C6.15241 3.47979 6.15217 3.4831 6.15217 3.48647C6.15217 3.71431 6.18356 3.93481 6.24124 4.14457C5.66997 4.44877 5.1683 4.85408 4.7478 5.3524C4.63442 5.48676 4.65145 5.68757 4.78581 5.80089C4.84555 5.85132 4.91841 5.87591 4.99092 5.87591C5.08145 5.87591 5.17138 5.83747 5.2343 5.76288C5.58952 5.34193 6.01086 4.99694 6.48928 4.73413C6.9205 5.47402 7.72212 5.97276 8.63849 5.97276C8.91951 5.97276 9.19562 5.92603 9.45903 5.83392C9.57376 5.79379 9.65563 5.69184 9.67001 5.57111C9.68439 5.45042 9.62875 5.33205 9.52664 5.26614C9.18942 5.0483 8.98807 4.67908 8.98807 4.27845C8.98807 3.64377 9.49403 3.1254 10.1238 3.10461C12.2379 3.67024 13.8102 5.37967 14.2458 7.46312C14.253 7.49759 14.26 7.53211 14.2665 7.56672C14.2699 7.5848 14.2731 7.603 14.2764 7.62114C14.2815 7.64946 14.2865 7.67784 14.2911 7.70624C14.2939 7.72325 14.2966 7.74029 14.2992 7.75735C14.3041 7.78931 14.3089 7.8213 14.3132 7.85334C14.3151 7.86668 14.317 7.88002 14.3187 7.89338C14.3308 7.98642 14.3407 8.07981 14.3483 8.17338C14.3492 8.18409 14.3499 8.19489 14.3507 8.20567C14.3534 8.24165 14.3558 8.27769 14.3579 8.31374C14.3586 8.32773 14.3594 8.34179 14.3601 8.35581C14.3618 8.39012 14.3631 8.42447 14.3641 8.45878C14.3646 8.47206 14.3651 8.48534 14.3654 8.49858C14.3666 8.54525 14.3673 8.59192 14.3673 8.63852C14.3673 8.6888 14.3666 8.73908 14.3653 8.78929ZM14.9372 9.55967C14.9407 9.53562 14.9439 9.51146 14.9471 9.48732C14.9505 9.46183 14.9538 9.43629 14.9569 9.41069C14.9608 9.37859 14.9646 9.34642 14.968 9.31426C14.9702 9.29319 14.9723 9.27207 14.9743 9.25091C14.977 9.22319 14.9794 9.19547 14.9817 9.16776C14.9833 9.14854 14.985 9.12938 14.9864 9.11011C14.9897 9.06592 14.9925 9.02173 14.9948 8.97745C14.9956 8.96319 14.9961 8.94889 14.9968 8.9346C14.9984 8.89901 14.9998 8.86344 15.0008 8.82781C15.0013 8.81298 15.0017 8.79812 15.0021 8.78327C15.0031 8.73502 15.0039 8.68677 15.0039 8.63846C15.0039 8.59648 15.0034 8.5545 15.0026 8.51252C15.0023 8.49727 15.0017 8.48205 15.0013 8.46681C15.0006 8.44046 14.9998 8.41411 14.9989 8.38774C14.9981 8.369 14.9972 8.35026 14.9963 8.33155C14.9952 8.30888 14.9941 8.28626 14.9927 8.26364C14.9915 8.24329 14.9903 8.223 14.9889 8.20271C14.9874 8.18183 14.9859 8.161 14.9842 8.14014C14.9826 8.11899 14.981 8.0978 14.9791 8.07671C14.9773 8.0563 14.9753 8.03598 14.9733 8.0156C14.9712 7.99462 14.9693 7.97362 14.967 7.95264C14.9645 7.92895 14.9616 7.90538 14.9588 7.88172C14.9556 7.85543 14.9524 7.8292 14.949 7.80301C14.9452 7.77442 14.9414 7.74584 14.9373 7.71734C15.3421 7.82804 15.6404 8.19904 15.6404 8.6384C15.6403 9.07794 15.342 9.44895 14.9372 9.55967Z"/>
</mask>
<path d="M14.8038 7.05205C14.3033 5.104 12.9 3.48462 11.0065 2.72787C10.6795 1.70647 9.71775 1 8.63849 1C7.53163 1 6.59177 1.72721 6.2706 2.7288C5.13023 3.18556 4.15367 3.95608 3.43921 4.96553C2.98785 5.60328 2.66244 6.30828 2.4719 7.05214C1.65008 7.11352 1 7.80131 1 8.63852C1 9.47622 1.65073 10.1644 2.47321 10.2251C3.17998 12.9699 5.67611 15.004 8.63849 15.004C11.6008 15.004 14.097 12.9699 14.8037 10.2251C15.6262 10.1644 16.2769 9.47622 16.2769 8.63846C16.2769 7.80086 15.6262 7.1128 14.8038 7.05205ZM1.63659 8.63846C1.63659 8.19928 1.93476 7.82843 2.33924 7.71755C2.31191 7.90696 2.29287 8.09822 2.28255 8.29094C2.28237 8.29363 2.28228 8.29625 2.28213 8.29894C2.28028 8.33403 2.27864 8.36915 2.27738 8.40433C2.27688 8.41766 2.27661 8.431 2.27625 8.44434C2.27547 8.46958 2.27467 8.49479 2.27419 8.52007C2.2735 8.55954 2.27309 8.59902 2.27309 8.63849C2.27309 8.68668 2.27383 8.73484 2.27497 8.78306C2.2753 8.79815 2.27571 8.81319 2.27619 8.82823C2.2772 8.86329 2.27858 8.89835 2.28019 8.93338C2.28084 8.94824 2.28144 8.96313 2.28219 8.97802C2.28452 9.02176 2.28732 9.06544 2.29051 9.10912C2.29203 9.12965 2.29382 9.15006 2.2955 9.17053C2.29767 9.19643 2.29994 9.22236 2.30242 9.24823C2.3046 9.27102 2.30683 9.29385 2.30925 9.31656C2.31206 9.34317 2.31525 9.36976 2.31838 9.39631C2.32253 9.4311 2.32697 9.4658 2.33166 9.50039C2.33434 9.5202 2.33682 9.53998 2.33968 9.55967C1.93497 9.44895 1.63659 9.07788 1.63659 8.63846ZM8.63849 1.63659C9.26888 1.63659 9.84543 1.96033 10.1819 2.46706C10.1756 2.467 10.1693 2.46697 10.1629 2.46697C10.1588 2.46697 10.1548 2.46727 10.1507 2.4673C10.1491 2.46736 10.1475 2.46733 10.1459 2.46742C9.15486 2.47664 8.35151 3.2853 8.35151 4.27839C8.35151 4.66485 8.47292 5.03227 8.69107 5.33542C8.67355 5.3359 8.65598 5.33617 8.63849 5.33617C7.61855 5.33617 6.78876 4.50638 6.78876 3.48644C6.78873 2.46641 7.61852 1.63659 8.63849 1.63659ZM14.3653 8.78929C14.3651 8.79705 14.3646 8.80475 14.3644 8.81251C14.3631 8.85514 14.3615 8.89781 14.3593 8.94045C14.3589 8.94806 14.3583 8.95567 14.3579 8.96328C14.3554 9.00586 14.3527 9.04846 14.3494 9.09101C14.3488 9.0996 14.3478 9.10814 14.3471 9.11673C14.3437 9.15785 14.34 9.19893 14.3357 9.23996C14.3345 9.25139 14.3331 9.26276 14.3318 9.27416C14.3276 9.31175 14.3233 9.34929 14.3184 9.38679C14.3163 9.40249 14.314 9.41809 14.3118 9.43373C14.3073 9.46616 14.3027 9.49857 14.2976 9.53088C14.2943 9.55192 14.2907 9.5728 14.2872 9.59378C14.2828 9.61995 14.2784 9.64608 14.2736 9.67216C14.2688 9.69869 14.2636 9.72506 14.2584 9.75141C14.2545 9.77116 14.2506 9.79095 14.2465 9.81067C13.7041 12.4093 11.3957 14.3674 8.63843 14.3674C5.87916 14.3674 3.56936 12.4065 3.02912 9.80506C3.02422 9.78149 3.01972 9.75777 3.01515 9.73407C3.01074 9.71146 3.00623 9.68884 3.00211 9.66613C2.99626 9.63397 2.99092 9.60166 2.98561 9.56937C2.9832 9.55454 2.98054 9.53974 2.97824 9.52488C2.97192 9.484 2.96613 9.44307 2.96064 9.40204C2.95971 9.39509 2.95858 9.38817 2.95771 9.38121C2.95145 9.33291 2.94572 9.28445 2.94068 9.23599C2.94068 9.23578 2.94062 9.23552 2.94062 9.23531C2.92 9.03718 2.90959 8.83784 2.90959 8.63858C2.90959 8.59362 2.91033 8.54862 2.91141 8.50366C2.91179 8.48889 2.91224 8.47415 2.91272 8.45941C2.91364 8.42915 2.9149 8.3989 2.91633 8.36864C2.91713 8.35104 2.91791 8.3334 2.9189 8.31583C2.92042 8.28903 2.92233 8.26224 2.92421 8.23547C2.92752 8.18923 2.93125 8.14307 2.93563 8.09703C2.93614 8.09175 2.93656 8.08646 2.93707 8.08121C3.13268 6.10029 4.35952 4.34236 6.15241 3.47641C6.15241 3.47979 6.15217 3.4831 6.15217 3.48647C6.15217 3.71431 6.18356 3.93481 6.24124 4.14457C5.66997 4.44877 5.1683 4.85408 4.7478 5.3524C4.63442 5.48676 4.65145 5.68757 4.78581 5.80089C4.84555 5.85132 4.91841 5.87591 4.99092 5.87591C5.08145 5.87591 5.17138 5.83747 5.2343 5.76288C5.58952 5.34193 6.01086 4.99694 6.48928 4.73413C6.9205 5.47402 7.72212 5.97276 8.63849 5.97276C8.91951 5.97276 9.19562 5.92603 9.45903 5.83392C9.57376 5.79379 9.65563 5.69184 9.67001 5.57111C9.68439 5.45042 9.62875 5.33205 9.52664 5.26614C9.18942 5.0483 8.98807 4.67908 8.98807 4.27845C8.98807 3.64377 9.49403 3.1254 10.1238 3.10461C12.2379 3.67024 13.8102 5.37967 14.2458 7.46312C14.253 7.49759 14.26 7.53211 14.2665 7.56672C14.2699 7.5848 14.2731 7.603 14.2764 7.62114C14.2815 7.64946 14.2865 7.67784 14.2911 7.70624C14.2939 7.72325 14.2966 7.74029 14.2992 7.75735C14.3041 7.78931 14.3089 7.8213 14.3132 7.85334C14.3151 7.86668 14.317 7.88002 14.3187 7.89338C14.3308 7.98642 14.3407 8.07981 14.3483 8.17338C14.3492 8.18409 14.3499 8.19489 14.3507 8.20567C14.3534 8.24165 14.3558 8.27769 14.3579 8.31374C14.3586 8.32773 14.3594 8.34179 14.3601 8.35581C14.3618 8.39012 14.3631 8.42447 14.3641 8.45878C14.3646 8.47206 14.3651 8.48534 14.3654 8.49858C14.3666 8.54525 14.3673 8.59192 14.3673 8.63852C14.3673 8.6888 14.3666 8.73908 14.3653 8.78929ZM14.9372 9.55967C14.9407 9.53562 14.9439 9.51146 14.9471 9.48732C14.9505 9.46183 14.9538 9.43629 14.9569 9.41069C14.9608 9.37859 14.9646 9.34642 14.968 9.31426C14.9702 9.29319 14.9723 9.27207 14.9743 9.25091C14.977 9.22319 14.9794 9.19547 14.9817 9.16776C14.9833 9.14854 14.985 9.12938 14.9864 9.11011C14.9897 9.06592 14.9925 9.02173 14.9948 8.97745C14.9956 8.96319 14.9961 8.94889 14.9968 8.9346C14.9984 8.89901 14.9998 8.86344 15.0008 8.82781C15.0013 8.81298 15.0017 8.79812 15.0021 8.78327C15.0031 8.73502 15.0039 8.68677 15.0039 8.63846C15.0039 8.59648 15.0034 8.5545 15.0026 8.51252C15.0023 8.49727 15.0017 8.48205 15.0013 8.46681C15.0006 8.44046 14.9998 8.41411 14.9989 8.38774C14.9981 8.369 14.9972 8.35026 14.9963 8.33155C14.9952 8.30888 14.9941 8.28626 14.9927 8.26364C14.9915 8.24329 14.9903 8.223 14.9889 8.20271C14.9874 8.18183 14.9859 8.161 14.9842 8.14014C14.9826 8.11899 14.981 8.0978 14.9791 8.07671C14.9773 8.0563 14.9753 8.03598 14.9733 8.0156C14.9712 7.99462 14.9693 7.97362 14.967 7.95264C14.9645 7.92895 14.9616 7.90538 14.9588 7.88172C14.9556 7.85543 14.9524 7.8292 14.949 7.80301C14.9452 7.77442 14.9414 7.74584 14.9373 7.71734C15.3421 7.82804 15.6404 8.19904 15.6404 8.6384C15.6403 9.07794 15.342 9.44895 14.9372 9.55967Z" fill="#47A1F1"/>
<path d="M14.8038 7.05205C14.3033 5.104 12.9 3.48462 11.0065 2.72787C10.6795 1.70647 9.71775 1 8.63849 1C7.53163 1 6.59177 1.72721 6.2706 2.7288C5.13023 3.18556 4.15367 3.95608 3.43921 4.96553C2.98785 5.60328 2.66244 6.30828 2.4719 7.05214C1.65008 7.11352 1 7.80131 1 8.63852C1 9.47622 1.65073 10.1644 2.47321 10.2251C3.17998 12.9699 5.67611 15.004 8.63849 15.004C11.6008 15.004 14.097 12.9699 14.8037 10.2251C15.6262 10.1644 16.2769 9.47622 16.2769 8.63846C16.2769 7.80086 15.6262 7.1128 14.8038 7.05205ZM1.63659 8.63846C1.63659 8.19928 1.93476 7.82843 2.33924 7.71755C2.31191 7.90696 2.29287 8.09822 2.28255 8.29094C2.28237 8.29363 2.28228 8.29625 2.28213 8.29894C2.28028 8.33403 2.27864 8.36915 2.27738 8.40433C2.27688 8.41766 2.27661 8.431 2.27625 8.44434C2.27547 8.46958 2.27467 8.49479 2.27419 8.52007C2.2735 8.55954 2.27309 8.59902 2.27309 8.63849C2.27309 8.68668 2.27383 8.73484 2.27497 8.78306C2.2753 8.79815 2.27571 8.81319 2.27619 8.82823C2.2772 8.86329 2.27858 8.89835 2.28019 8.93338C2.28084 8.94824 2.28144 8.96313 2.28219 8.97802C2.28452 9.02176 2.28732 9.06544 2.29051 9.10912C2.29203 9.12965 2.29382 9.15006 2.2955 9.17053C2.29767 9.19643 2.29994 9.22236 2.30242 9.24823C2.3046 9.27102 2.30683 9.29385 2.30925 9.31656C2.31206 9.34317 2.31525 9.36976 2.31838 9.39631C2.32253 9.4311 2.32697 9.4658 2.33166 9.50039C2.33434 9.5202 2.33682 9.53998 2.33968 9.55967C1.93497 9.44895 1.63659 9.07788 1.63659 8.63846ZM8.63849 1.63659C9.26888 1.63659 9.84543 1.96033 10.1819 2.46706C10.1756 2.467 10.1693 2.46697 10.1629 2.46697C10.1588 2.46697 10.1548 2.46727 10.1507 2.4673C10.1491 2.46736 10.1475 2.46733 10.1459 2.46742C9.15486 2.47664 8.35151 3.2853 8.35151 4.27839C8.35151 4.66485 8.47292 5.03227 8.69107 5.33542C8.67355 5.3359 8.65598 5.33617 8.63849 5.33617C7.61855 5.33617 6.78876 4.50638 6.78876 3.48644C6.78873 2.46641 7.61852 1.63659 8.63849 1.63659ZM14.3653 8.78929C14.3651 8.79705 14.3646 8.80475 14.3644 8.81251C14.3631 8.85514 14.3615 8.89781 14.3593 8.94045C14.3589 8.94806 14.3583 8.95567 14.3579 8.96328C14.3554 9.00586 14.3527 9.04846 14.3494 9.09101C14.3488 9.0996 14.3478 9.10814 14.3471 9.11673C14.3437 9.15785 14.34 9.19893 14.3357 9.23996C14.3345 9.25139 14.3331 9.26276 14.3318 9.27416C14.3276 9.31175 14.3233 9.34929 14.3184 9.38679C14.3163 9.40249 14.314 9.41809 14.3118 9.43373C14.3073 9.46616 14.3027 9.49857 14.2976 9.53088C14.2943 9.55192 14.2907 9.5728 14.2872 9.59378C14.2828 9.61995 14.2784 9.64608 14.2736 9.67216C14.2688 9.69869 14.2636 9.72506 14.2584 9.75141C14.2545 9.77116 14.2506 9.79095 14.2465 9.81067C13.7041 12.4093 11.3957 14.3674 8.63843 14.3674C5.87916 14.3674 3.56936 12.4065 3.02912 9.80506C3.02422 9.78149 3.01972 9.75777 3.01515 9.73407C3.01074 9.71146 3.00623 9.68884 3.00211 9.66613C2.99626 9.63397 2.99092 9.60166 2.98561 9.56937C2.9832 9.55454 2.98054 9.53974 2.97824 9.52488C2.97192 9.484 2.96613 9.44307 2.96064 9.40204C2.95971 9.39509 2.95858 9.38817 2.95771 9.38121C2.95145 9.33291 2.94572 9.28445 2.94068 9.23599C2.94068 9.23578 2.94062 9.23552 2.94062 9.23531C2.92 9.03718 2.90959 8.83784 2.90959 8.63858C2.90959 8.59362 2.91033 8.54862 2.91141 8.50366C2.91179 8.48889 2.91224 8.47415 2.91272 8.45941C2.91364 8.42915 2.9149 8.3989 2.91633 8.36864C2.91713 8.35104 2.91791 8.3334 2.9189 8.31583C2.92042 8.28903 2.92233 8.26224 2.92421 8.23547C2.92752 8.18923 2.93125 8.14307 2.93563 8.09703C2.93614 8.09175 2.93656 8.08646 2.93707 8.08121C3.13268 6.10029 4.35952 4.34236 6.15241 3.47641C6.15241 3.47979 6.15217 3.4831 6.15217 3.48647C6.15217 3.71431 6.18356 3.93481 6.24124 4.14457C5.66997 4.44877 5.1683 4.85408 4.7478 5.3524C4.63442 5.48676 4.65145 5.68757 4.78581 5.80089C4.84555 5.85132 4.91841 5.87591 4.99092 5.87591C5.08145 5.87591 5.17138 5.83747 5.2343 5.76288C5.58952 5.34193 6.01086 4.99694 6.48928 4.73413C6.9205 5.47402 7.72212 5.97276 8.63849 5.97276C8.91951 5.97276 9.19562 5.92603 9.45903 5.83392C9.57376 5.79379 9.65563 5.69184 9.67001 5.57111C9.68439 5.45042 9.62875 5.33205 9.52664 5.26614C9.18942 5.0483 8.98807 4.67908 8.98807 4.27845C8.98807 3.64377 9.49403 3.1254 10.1238 3.10461C12.2379 3.67024 13.8102 5.37967 14.2458 7.46312C14.253 7.49759 14.26 7.53211 14.2665 7.56672C14.2699 7.5848 14.2731 7.603 14.2764 7.62114C14.2815 7.64946 14.2865 7.67784 14.2911 7.70624C14.2939 7.72325 14.2966 7.74029 14.2992 7.75735C14.3041 7.78931 14.3089 7.8213 14.3132 7.85334C14.3151 7.86668 14.317 7.88002 14.3187 7.89338C14.3308 7.98642 14.3407 8.07981 14.3483 8.17338C14.3492 8.18409 14.3499 8.19489 14.3507 8.20567C14.3534 8.24165 14.3558 8.27769 14.3579 8.31374C14.3586 8.32773 14.3594 8.34179 14.3601 8.35581C14.3618 8.39012 14.3631 8.42447 14.3641 8.45878C14.3646 8.47206 14.3651 8.48534 14.3654 8.49858C14.3666 8.54525 14.3673 8.59192 14.3673 8.63852C14.3673 8.6888 14.3666 8.73908 14.3653 8.78929ZM14.9372 9.55967C14.9407 9.53562 14.9439 9.51146 14.9471 9.48732C14.9505 9.46183 14.9538 9.43629 14.9569 9.41069C14.9608 9.37859 14.9646 9.34642 14.968 9.31426C14.9702 9.29319 14.9723 9.27207 14.9743 9.25091C14.977 9.22319 14.9794 9.19547 14.9817 9.16776C14.9833 9.14854 14.985 9.12938 14.9864 9.11011C14.9897 9.06592 14.9925 9.02173 14.9948 8.97745C14.9956 8.96319 14.9961 8.94889 14.9968 8.9346C14.9984 8.89901 14.9998 8.86344 15.0008 8.82781C15.0013 8.81298 15.0017 8.79812 15.0021 8.78327C15.0031 8.73502 15.0039 8.68677 15.0039 8.63846C15.0039 8.59648 15.0034 8.5545 15.0026 8.51252C15.0023 8.49727 15.0017 8.48205 15.0013 8.46681C15.0006 8.44046 14.9998 8.41411 14.9989 8.38774C14.9981 8.369 14.9972 8.35026 14.9963 8.33155C14.9952 8.30888 14.9941 8.28626 14.9927 8.26364C14.9915 8.24329 14.9903 8.223 14.9889 8.20271C14.9874 8.18183 14.9859 8.161 14.9842 8.14014C14.9826 8.11899 14.981 8.0978 14.9791 8.07671C14.9773 8.0563 14.9753 8.03598 14.9733 8.0156C14.9712 7.99462 14.9693 7.97362 14.967 7.95264C14.9645 7.92895 14.9616 7.90538 14.9588 7.88172C14.9556 7.85543 14.9524 7.8292 14.949 7.80301C14.9452 7.77442 14.9414 7.74584 14.9373 7.71734C15.3421 7.82804 15.6404 8.19904 15.6404 8.6384C15.6403 9.07794 15.342 9.44895 14.9372 9.55967Z" stroke="#47A1F1" stroke-width="0.6" mask="url(#path-2-outside-1_253_953)"/>
<path d="M7.65111 8.96808L7.65111 8.96809C7.71805 9.2179 7.56985 9.47467 7.31997 9.54163C7.31996 9.54163 7.31995 9.54163 7.31994 9.54163L7.65111 8.96808ZM7.65111 8.96808C7.48465 8.34694 6.9196 7.91329 6.27652 7.91329C5.63352 7.91329 5.06842 8.34694 4.90193 8.96808L4.90193 8.96809M7.65111 8.96808L4.90193 8.96809M4.90193 8.96809C4.83498 9.21791 4.98323 9.47468 5.23302 9.54163L5.23308 9.54165M4.90193 8.96809L5.23308 9.54165M5.23308 9.54165C5.48285 9.60848 5.7396 9.46038 5.80657 9.21055L5.23308 9.54165Z" fill="#47A1F1" stroke="#47A1F1" stroke-width="0.3"/>
<path d="M12.0438 9.54163C12.2937 9.47468 12.4419 9.21786 12.3749 8.96808C12.2085 8.34698 11.6434 7.91329 11.0004 7.91329C10.3573 7.91329 9.79222 8.34697 9.62579 8.96812L9.62579 8.96814L9.95691 9.54162C10.2067 9.60863 10.4635 9.46026 10.5304 9.2105M12.0438 9.54163L12.005 9.39674L12.0439 9.54163C12.0439 9.54163 12.0439 9.54163 12.0438 9.54163ZM12.0438 9.54163C12.0034 9.55247 11.9626 9.55766 11.9224 9.55766C11.7157 9.55766 11.5264 9.41993 11.4703 9.21054L11.4703 9.21053C11.4134 8.99826 11.22 8.84985 11.0004 8.84985C10.7807 8.84985 10.5873 8.99827 10.5304 9.2105M10.5304 9.2105C10.5304 9.2105 10.5304 9.21049 10.5304 9.21048L10.3856 9.17169L10.5304 9.2105Z" fill="#47A1F1" stroke="#47A1F1" stroke-width="0.3"/>
<path d="M9.68202 11.0951L9.682 11.0951L9.25336 11.4651L9.10847 11.4262C9.10847 11.4262 9.10847 11.4262 9.10847 11.4262C9.05155 11.6385 8.85814 11.7869 8.63855 11.7869C8.41889 11.7869 8.22549 11.6385 8.16864 11.4262L8.16863 11.4262C8.10169 11.1764 7.84492 11.0282 7.59509 11.0951C7.34525 11.1621 7.19705 11.4188 7.26399 11.6686C7.43045 12.2899 7.9955 12.7235 8.63858 12.7235C9.2816 12.7235 9.84671 12.2898 10.0132 11.6686L10.0132 11.6686C10.08 11.4188 9.93182 11.1621 9.68202 11.0951Z" fill="#47A1F1" stroke="#47A1F1" stroke-width="0.3"/>
</svg>
