<svg width="14" height="14" viewBox="0 0 14 14" fill="none" xmlns="http://www.w3.org/2000/svg">
<path d="M1.1665 12.8333H12.8332" stroke="#47A1F1" stroke-width="1.2" stroke-linecap="round" stroke-linejoin="round"/>
<path d="M1.81445 12.8333V7.58334C1.81445 6.61501 2.68362 5.83334 3.75695 5.83334H10.2378C11.3111 5.83334 12.1803 6.61501 12.1803 7.58334V12.8333" stroke="#47A1F1" stroke-width="1.2" stroke-linecap="round" stroke-linejoin="round"/>
<path d="M3.24365 5.83332V4.18249C3.24365 3.48249 3.87365 2.91666 4.65532 2.91666H9.35115C10.127 2.91666 10.757 3.48249 10.757 4.18249V5.83332" stroke="#47A1F1" stroke-width="1.2" stroke-linecap="round" stroke-linejoin="round"/>
<path d="M2.05908 8.15497L2.27492 8.1608C2.70658 8.16664 3.05075 8.51664 3.05075 8.9483V9.1408C3.05075 9.57247 3.40075 9.9283 3.83825 9.9283C4.26992 9.9283 4.62575 9.5783 4.62575 9.1408V8.95997C4.62575 8.5283 4.97575 8.17247 5.41325 8.17247C5.84492 8.17247 6.20075 8.52247 6.20075 8.95997V9.1408C6.20075 9.57247 6.55075 9.9283 6.98825 9.9283C7.41992 9.9283 7.77575 9.5783 7.77575 9.1408V8.95997C7.77575 8.5283 8.12575 8.17247 8.56325 8.17247C8.99492 8.17247 9.35075 8.52247 9.35075 8.95997V9.1408C9.35075 9.57247 9.70075 9.9283 10.1382 9.9283C10.5699 9.9283 10.9257 9.5783 10.9257 9.1408V8.95997C10.9257 8.5283 11.2757 8.17247 11.7132 8.17247H11.9757" stroke="#47A1F1" stroke-width="1.2" stroke-linecap="round" stroke-linejoin="round"/>
<path d="M4.6665 2.91667V1.75" stroke="#47A1F1" stroke-width="1.2" stroke-linecap="round" stroke-linejoin="round"/>
<path d="M9.3335 2.91667V1.75" stroke="#47A1F1" stroke-width="1.2" stroke-linecap="round" stroke-linejoin="round"/>
<path d="M7 2.91666V1.16666" stroke="#47A1F1" stroke-width="1.2" stroke-linecap="round" stroke-linejoin="round"/>
</svg>
