<svg width="14" height="14" viewBox="0 0 14 14" fill="none" xmlns="http://www.w3.org/2000/svg">
<path d="M12.8162 10.6925C12.8162 10.9025 12.7695 11.1183 12.6703 11.3283C12.5712 11.5383 12.4428 11.7367 12.2737 11.9233C11.9878 12.2383 11.6728 12.4658 11.317 12.6117C10.967 12.7575 10.5878 12.8333 10.1795 12.8333C9.58449 12.8333 8.94866 12.6933 8.27783 12.4075C7.60699 12.1217 6.93616 11.7367 6.27116 11.2525C5.60033 10.7625 4.96449 10.22 4.35783 9.61916C3.75699 9.01249 3.21449 8.37666 2.73033 7.71166C2.25199 7.04666 1.86699 6.38166 1.58699 5.72249C1.30699 5.05749 1.16699 4.42166 1.16699 3.81499C1.16699 3.41832 1.23699 3.03916 1.37699 2.68916C1.51699 2.33332 1.73866 2.00666 2.04783 1.71499C2.42116 1.34749 2.82949 1.16666 3.26116 1.16666C3.42449 1.16666 3.58783 1.20166 3.73366 1.27166C3.88533 1.34166 4.01949 1.44666 4.12449 1.59832L5.47783 3.50582C5.58283 3.65166 5.65866 3.78582 5.71116 3.91416C5.76366 4.03666 5.79283 4.15916 5.79283 4.26999C5.79283 4.40999 5.75199 4.54999 5.67033 4.68416C5.59449 4.81832 5.48366 4.95832 5.34366 5.09832L4.90033 5.55916C4.83616 5.62332 4.80699 5.69916 4.80699 5.79249C4.80699 5.83916 4.81283 5.87999 4.82449 5.92666C4.84199 5.97332 4.85949 6.00832 4.87116 6.04332C4.97616 6.23582 5.15699 6.48666 5.41366 6.78999C5.67616 7.09332 5.95616 7.40249 6.25949 7.71166C6.57449 8.02082 6.87783 8.30666 7.18699 8.56916C7.49033 8.82582 7.74116 9.00082 7.93949 9.10582C7.96866 9.11749 8.00366 9.13499 8.04449 9.15249C8.09116 9.16999 8.13783 9.17582 8.19033 9.17582C8.28949 9.17582 8.36533 9.14082 8.42949 9.07666L8.87283 8.63916C9.01866 8.49332 9.15866 8.38249 9.29283 8.31249C9.42699 8.23082 9.56116 8.18999 9.70699 8.18999C9.81782 8.18999 9.93449 8.21332 10.0628 8.26582C10.1912 8.31832 10.3253 8.39416 10.4712 8.49332L12.402 9.86416C12.5537 9.96916 12.6587 10.0917 12.7228 10.2375C12.7812 10.3833 12.8162 10.5292 12.8162 10.6925Z" stroke="#47A1F1" stroke-width="1.5" stroke-miterlimit="10"/>
</svg>
