<svg width="94" height="68" viewBox="0 0 94 68" fill="none" xmlns="http://www.w3.org/2000/svg">
<g opacity="0.4">
<path d="M44.1024 0.170721C34.9191 1.28548 26.7479 8.36627 24.3406 17.2986C16.3157 12.5713 5.23419 13.807 -1.55193 20.1866C-6.00792 24.3764 -8.35734 31.9368 -4.31392 36.5269C-9.60624 40.4016 -10.6021 48.9539 -6.34022 53.9404C-2.07832 58.9268 6.52372 59.2774 11.1758 54.6537C15.451 62.0394 23.5246 67.0817 32.0362 67.6843C36.9454 68.0329 42.7062 66.8246 47.1256 64.6774C48.4162 64.0504 56.4979 57.9675 54.4737 55.8874C58.7589 60.2925 64.2443 63.7639 70.3283 64.6307C76.4132 65.4985 83.0896 63.4204 86.8301 58.5437C90.5718 53.667 90.5799 45.9765 86.1534 41.7125C90.7842 39.7421 93.9851 34.8106 93.9008 29.7784C93.8195 24.9017 89.9804 19.1409 85.4136 17.1837C83.2705 16.2671 70.7307 16.821 71.2113 20.9589C70.5416 15.2032 67.5967 10.0704 63.3602 6.32477C58.2468 1.80272 51.2503 -0.697105 44.1024 0.170721Z" fill="white"/>
<path d="M71.2114 20.9589C70.5417 15.2032 67.5968 10.0704 63.3603 6.32475C58.2468 1.80372 51.2503 -0.696103 44.1014 0.170707C48.9792 2.02729 52.923 5.87153 56.3913 9.77167C60.0374 13.872 63.4314 18.2843 65.6315 23.3113C67.8315 28.3384 68.7664 34.0596 67.3976 39.3732C69.9645 34.0189 71.8973 26.8558 71.2114 20.9589Z" fill="#F5FBFF"/>
<path d="M-4.31488 36.5269C-9.6072 40.4016 -10.6031 48.9539 -6.34115 53.9404C-2.07926 58.9268 6.52279 59.2774 11.1749 54.6537C15.45 62.0394 23.5236 67.0817 32.0352 67.6843C36.9445 68.0329 42.7052 66.8246 47.1246 64.6774C48.4152 64.0504 56.497 57.9675 54.4727 55.8874C58.758 60.2925 64.2434 63.7639 70.3273 64.6307C76.4123 65.4985 83.0886 63.4204 86.8292 58.5437C90.5708 53.667 90.579 45.9765 86.1524 41.7125C90.7832 39.7421 93.9842 34.8106 93.8999 29.7784C93.8175 24.9017 89.9794 19.1409 85.4127 17.1837C85.2826 17.1278 85.1119 17.0781 84.9096 17.0344C86.5803 19.3869 87.3251 22.3755 86.4725 25.106C85.2541 29.0071 80.3042 31.5201 76.7201 29.5579C80.0482 38.7107 74.0496 50.0839 64.6163 52.5065C66.8682 46.1787 65.0624 38.604 60.1989 33.9732C58.0731 42.5031 50.5309 49.4183 41.8486 50.7983C33.1673 52.1773 23.8529 47.9398 19.1875 40.4891C14.0914 41.489 8.16393 42.2847 4.27091 38.8459C0.849397 35.8237 0.417519 30.5263 1.65625 26.1333C3.06876 21.1225 6.07972 17.6095 9.88941 14.7327C5.64174 15.4024 1.58309 17.2376 -1.55491 20.1866C-6.00887 24.3763 -8.35729 31.9368 -4.31488 36.5269Z" fill="#F5FBFF"/>
<path d="M70.3283 64.6306C76.4133 65.4985 83.0896 63.4204 86.8302 58.5437C90.5718 53.667 90.58 45.9764 86.1534 41.7125C90.7842 39.7421 93.9852 34.8106 93.9009 29.7784C93.1651 35.2943 88.0466 39.1619 82.483 39.2188C84.9177 43.9126 85.1179 49.7048 83.0154 54.5572C80.9129 59.4095 75.4174 63.1968 70.3283 64.6306Z" fill="#DFF2FD"/>
<path d="M54.4737 55.8873C56.4979 57.9685 48.4162 64.0504 47.1256 64.6774C42.7062 66.8246 36.9444 68.0328 32.0362 67.6843C23.5246 67.0817 15.45 62.0383 11.1759 54.6537C6.52375 59.2774 -2.07829 58.9268 -6.34019 53.9403C-10.6011 48.9549 -9.60621 40.4026 -4.31389 36.5269C-5.59226 39.0674 -5.74773 42.1058 -5.61868 44.946C-5.48962 47.7863 -4.30273 50.6468 -2.0915 52.4353C0.288412 54.359 3.64185 54.8468 6.60506 54.0826C9.56827 53.3184 12.1514 51.4131 14.1228 49.0728C15.2762 54.5409 19.4375 59.0762 24.4463 61.5536C29.4551 64.0311 35.22 64.6347 40.7927 64.2313C43.5212 64.0341 46.2741 63.5931 48.7505 62.4316C51.226 61.2721 53.4768 58.4339 54.4737 55.8873Z" fill="#DFF2FD"/>
</g>
</svg>
