<svg width="88" height="88" viewBox="0 0 88 88" fill="none" xmlns="http://www.w3.org/2000/svg">
<path d="M68.3763 49.095V54.789C68.3763 58.473 67.7613 61.99 66.5893 65.227C62.2913 77.341 50.6803 86.048 37.1153 86.048H31.4213C14.1733 86.048 0.218262 72.038 0.218262 54.789V49.095C0.218262 31.846 14.1733 17.89 31.4213 17.89H37.1153C38.5663 17.89 40.0183 18.002 41.4133 18.225L40.8553 18.616C39.2933 19.676 39.3483 22.022 40.9673 23.026L60.1143 35.42C61.6773 36.424 63.7983 35.532 64.1893 33.689V33.577C66.8683 38.155 68.3763 43.402 68.3763 49.095Z" fill="#FFD140"/>
<path d="M70.2733 3.21098L64.6913 31.233L64.1894 33.577V33.689C63.7983 35.532 61.6774 36.424 60.1144 35.42L40.9673 23.027C39.3493 22.023 39.2933 19.677 40.8553 18.617L41.4133 18.226L41.8604 17.891L66.0864 0.530976C68.0404 -0.920024 70.7204 0.810976 70.2733 3.21098Z" fill="#FA3DA1"/>
<path d="M17.4842 42.634C17.2522 42.634 17.0152 42.596 16.7862 42.509C15.7782 42.122 15.2732 40.994 15.6602 39.985C16.4942 37.799 18.3752 36.131 20.6892 35.515C23.0062 34.91 25.4642 35.433 27.2742 36.911C28.1082 37.592 28.2312 38.824 27.5492 39.658C26.8652 40.503 25.6302 40.617 24.7992 39.931C23.9542 39.239 22.7822 38.999 21.6862 39.293C20.5882 39.582 19.6962 40.367 19.3072 41.381C19.0112 42.16 18.2692 42.634 17.4842 42.634Z" fill="#2D2B28"/>
<path d="M48.1423 42.634C47.3573 42.634 46.6183 42.16 46.3193 41.386C45.9273 40.367 45.0353 39.582 43.9313 39.287C42.8353 39.004 41.6693 39.238 40.8243 39.93C39.9933 40.617 38.7613 40.502 38.0743 39.657C37.3933 38.823 37.5153 37.591 38.3493 36.91C40.1593 35.416 42.6203 34.909 44.9293 35.509C47.2463 36.125 49.1263 37.799 49.9663 39.979C50.3533 40.987 49.8523 42.116 48.8433 42.508C48.6143 42.596 48.3773 42.634 48.1423 42.634Z" fill="#2D2B28"/>
<path d="M41.2193 51.776C40.5483 51.776 39.8943 51.433 39.5323 50.811C38.9843 49.884 39.2983 48.685 40.2273 48.14C44.0433 45.905 47.4693 46.417 48.8953 47.055C49.8743 47.507 50.3073 48.663 49.8573 49.644C49.4103 50.62 48.2683 51.067 47.2983 50.62C47.1623 50.571 45.1203 49.802 42.2063 51.509C41.8953 51.694 41.5543 51.776 41.2193 51.776Z" fill="#2D2B28"/>
<path d="M24.4453 51.776C24.1103 51.776 23.7693 51.694 23.4613 51.509C20.5123 49.781 18.4463 50.582 18.3643 50.626C17.3773 51.013 16.2353 50.577 15.8133 49.601C15.3883 48.625 15.8053 47.502 16.7703 47.055C18.1903 46.406 21.6163 45.899 25.4353 48.14C26.3673 48.685 26.6813 49.879 26.1333 50.811C25.7703 51.433 25.1163 51.776 24.4453 51.776Z" fill="#2D2B28"/>
<path d="M31.7043 73.2C31.5923 73.2 31.4783 73.195 31.3633 73.189C30.8563 73.151 30.3843 73.047 29.9103 72.867C28.9023 72.485 28.3923 71.362 28.7713 70.349C29.1553 69.346 30.2863 68.823 31.2893 69.215C32.3223 69.34 33.0313 68.752 33.1023 68.07C33.1623 67.509 32.9253 67.132 32.7123 66.92C31.7693 65.966 31.7693 64.467 32.7123 63.513C32.9253 63.3 33.1623 62.924 33.1023 62.363C33.0283 61.676 32.3283 60.962 31.6193 61.147C30.6133 61.518 29.3163 61.049 28.9373 60.04C28.5553 59.032 28.9023 57.941 29.9103 57.56C30.3713 57.386 30.8453 57.282 31.3553 57.244C34.2253 57.113 36.6923 59.168 36.9893 61.948C37.1123 63.104 36.8643 64.243 36.2943 65.213C36.8643 66.189 37.1123 67.328 36.9893 68.484C36.7033 71.15 34.3703 73.2 31.7043 73.2Z" fill="#2D2B28"/>
<path d="M80.2863 67.165H33.9583C32.8793 67.165 32.0043 66.293 32.0043 65.213C32.0043 64.134 32.8793 63.261 33.9583 63.261H80.2863C81.9793 63.261 83.3553 61.882 83.3553 60.192C83.3553 59.363 83.0393 58.589 82.4613 58.011C81.8943 57.444 81.1013 57.117 80.2863 57.117H77.7763C77.4683 57.117 77.2173 57.368 77.2173 57.678C77.2173 57.989 77.4683 58.239 77.7763 58.239H79.7253C80.8043 58.239 81.6793 59.111 81.6793 60.191C81.6793 61.27 80.8043 62.143 79.7253 62.143H77.7763C75.3123 62.143 73.3093 60.142 73.3093 57.678C73.3093 55.214 75.3123 53.213 77.7763 53.213H80.2863C82.1343 53.213 83.9333 53.954 85.2283 55.252C86.5393 56.566 87.2643 58.321 87.2643 60.191C87.2633 64.036 84.1323 67.165 80.2863 67.165Z" fill="#2D2B28"/>
<path d="M1.95629 21.352C1.88229 21.352 1.80929 21.352 1.73529 21.341C0.664294 21.221 -0.107706 20.256 0.0122944 19.182C0.0312944 18.997 0.549294 14.505 2.55229 8.99398C3.80629 5.54898 1.54929 4.18098 1.08329 3.94098C0.133295 3.44998 -0.259706 2.28398 0.217294 1.32398C0.691294 0.369982 1.83129 -0.0330176 2.80129 0.429982C4.86729 1.42798 8.24729 4.77498 6.22729 10.324C4.39029 15.377 3.89929 19.575 3.89429 19.618C3.78229 20.617 2.93729 21.352 1.95629 21.352Z" fill="#47A1F1"/>
<path d="M16.5663 10.472C15.4873 10.472 14.6123 9.59998 14.6123 8.51998V2.19098C14.6123 1.11198 15.4873 0.238983 16.5663 0.238983C17.6453 0.238983 18.5203 1.11098 18.5203 2.19098V8.51998C18.5203 9.59898 17.6453 10.472 16.5663 10.472Z" fill="#47A1F1"/>
<path d="M84.1043 20.606C83.7633 20.606 83.4173 20.519 83.1043 20.328C82.9463 20.235 79.2723 17.984 78.4593 13.934C77.6933 10.102 80.7513 4.42099 81.1033 3.78399C81.6263 2.83499 82.8153 2.50299 83.7553 3.02099C84.7013 3.54399 85.0423 4.73299 84.5213 5.67599C83.3873 7.73699 81.9433 11.427 82.2913 13.172C82.7573 15.505 85.1013 16.972 85.1263 16.988C86.0393 17.549 86.3313 18.754 85.7723 19.67C85.4053 20.273 84.7643 20.606 84.1043 20.606Z" fill="#47A1F1"/>
<path d="M75.4533 88C74.6433 88 73.8883 87.498 73.6083 86.692L72.9653 84.844C72.0903 82.331 73.8103 78.771 74.1623 78.084C74.6553 77.13 75.8363 76.7429 76.7903 77.2389C77.7493 77.7299 78.1313 78.9069 77.6403 79.8669C76.9483 81.2299 76.4683 83.0229 76.6563 83.5579L77.2993 85.4059C77.6533 86.4249 77.1163 87.5369 76.0973 87.8919C75.8843 87.9669 75.6663 88 75.4533 88Z" fill="#47A1F1"/>
</svg>
