<svg width="16" height="16" viewBox="0 0 16 16" fill="none" xmlns="http://www.w3.org/2000/svg">
<path d="M11.1332 12.6533H4.86656C4.58656 12.6533 4.27322 12.4333 4.17989 12.1667L1.41989 4.44667C1.02656 3.34 1.48656 3 2.43322 3.68L5.03322 5.54C5.46655 5.84 5.95989 5.68667 6.14655 5.2L7.31989 2.07333C7.69322 1.07333 8.31322 1.07333 8.68655 2.07333L9.85989 5.2C10.0466 5.68667 10.5399 5.84 10.9666 5.54L13.4066 3.8C14.4466 3.05333 14.9466 3.43333 14.5199 4.64L11.8266 12.18C11.7266 12.4333 11.4132 12.6533 11.1332 12.6533Z" stroke="#6BB5F6" stroke-width="1.2" stroke-linecap="round" stroke-linejoin="round"/>
<path d="M4.33325 14.6667H11.6666" stroke="#6BB5F6" stroke-width="1.2" stroke-linecap="round" stroke-linejoin="round"/>
<path d="M6.33325 9.33331H9.66659" stroke="#6BB5F6" stroke-width="1.2" stroke-linecap="round" stroke-linejoin="round"/>
</svg>
