<svg width="25" height="25" viewBox="0 0 25 25" fill="none" xmlns="http://www.w3.org/2000/svg">
<path d="M12.4991 20.8683C12.028 20.8683 11.646 21.2503 11.646 21.7214V24.147C11.646 24.6182 12.028 25.0001 12.4991 25.0001C12.9704 25.0001 13.3522 24.6182 13.3522 24.147V21.7214C13.3522 21.2501 12.9703 20.8683 12.4991 20.8683Z" fill="#6BB5F6"/>
<path d="M12.4991 4.13207C12.9704 4.13207 13.3522 3.7501 13.3522 3.27895V0.853122C13.3522 0.381971 12.9704 0 12.4991 0C12.028 0 11.646 0.381971 11.646 0.853122V3.27895C11.646 3.7501 12.028 4.13207 12.4991 4.13207Z" fill="#6BB5F6"/>
<path d="M5.37649 18.4168L3.66069 20.1317C3.32741 20.4648 3.32729 21.005 3.66035 21.3382C3.827 21.5048 4.0454 21.5882 4.2638 21.5882C4.48208 21.5882 4.70025 21.5049 4.8669 21.3385L6.5827 19.6236C6.91598 19.2906 6.9161 18.7504 6.58304 18.4172C6.24975 18.0839 5.70967 18.0839 5.37649 18.4168Z" fill="#6BB5F6"/>
<path d="M19.02 6.83238C19.2383 6.83238 19.4566 6.74912 19.6233 6.58259L21.3388 4.8677C21.672 4.53452 21.6721 3.99444 21.3391 3.66115C21.0059 3.32787 20.4658 3.32775 20.1325 3.66104L18.4169 5.37593C18.0838 5.70899 18.0837 6.24919 18.4167 6.58236C18.5832 6.74912 18.8016 6.83238 19.02 6.83238Z" fill="#6BB5F6"/>
<path d="M4.13184 12.5002C4.13184 12.029 3.74987 11.647 3.27872 11.647H0.853122C0.381971 11.647 0 12.029 0 12.5002C0 12.9713 0.381971 13.3533 0.853122 13.3533H3.27872C3.74987 13.3533 4.13184 12.9713 4.13184 12.5002Z" fill="#6BB5F6"/>
<path d="M24.1475 11.647H21.7208C21.2495 11.647 20.8677 12.029 20.8677 12.5002C20.8677 12.9713 21.2495 13.3533 21.7208 13.3533H24.1475C24.6188 13.3533 25.0007 12.9713 25.0007 12.5002C25.0007 12.0291 24.6188 11.647 24.1475 11.647Z" fill="#6BB5F6"/>
<path d="M5.37639 6.58245C5.54292 6.74897 5.76132 6.83224 5.9796 6.83224C6.19789 6.83224 6.41629 6.74897 6.58282 6.58245C6.91599 6.24927 6.91599 5.70908 6.58282 5.3759L4.86793 3.66101C4.53476 3.32784 3.99456 3.32784 3.6615 3.66101C3.32833 3.99419 3.32833 4.53438 3.6615 4.86744L5.37639 6.58245Z" fill="#6BB5F6"/>
<path d="M19.624 18.4171C19.2908 18.0839 18.7506 18.0838 18.4175 18.417C18.0842 18.7502 18.0842 19.2904 18.4173 19.6234L20.132 21.3383C20.2987 21.505 20.5169 21.5882 20.7353 21.5882C20.9536 21.5882 21.172 21.505 21.3386 21.3384C21.6718 21.0053 21.6718 20.4651 21.3387 20.132L19.624 18.4171Z" fill="#6BB5F6"/>
<path d="M12.4998 5.85992C8.83851 5.85992 5.85986 8.8388 5.85986 12.5003C5.85986 16.1617 8.83851 19.1404 12.4998 19.1404C16.1614 19.1404 19.1402 16.1617 19.1402 12.5003C19.1402 8.8388 16.1613 5.85992 12.4998 5.85992ZM12.4998 17.4342C9.77934 17.4342 7.56611 15.2208 7.56611 12.5003C7.56611 9.77962 9.77934 7.56617 12.4998 7.56617C15.2205 7.56617 17.434 9.77962 17.434 12.5003C17.434 15.2208 15.2205 17.4342 12.4998 17.4342Z" fill="#6BB5F6"/>
</svg>
