<svg width="20" height="20" viewBox="0 0 20 20" fill="none" xmlns="http://www.w3.org/2000/svg">
<path d="M10 20C15.5228 20 20 15.5228 20 10C20 4.47715 15.5228 0 10 0C4.47715 0 0 4.47715 0 10C0 15.5228 4.47715 20 10 20Z" fill="url(#paint0_linear_6_94)"/>
<path d="M12.9297 4.72656C11.6434 4.72656 10.6569 5.44965 10 6.5257C9.34297 5.44945 8.35637 4.72656 7.07031 4.72656C6.07379 4.72656 5.16453 5.14719 4.51012 5.91094C3.89402 6.63004 3.55469 7.59035 3.55469 8.61504C3.55469 9.72922 3.97258 10.7593 4.86977 11.8567C5.65641 12.8189 6.7857 13.8087 8.09336 14.9548C8.5768 15.3786 9.07672 15.8168 9.60801 16.2949C9.71945 16.3952 9.85973 16.4453 10 16.4453C10.1403 16.4453 10.2805 16.3952 10.392 16.2949C10.9233 15.8167 11.4232 15.3786 11.9066 14.9548C13.2143 13.8087 14.3436 12.8188 15.1302 11.8566C16.0274 10.7593 16.4453 9.72922 16.4453 8.61504C16.4453 6.51984 15.0098 4.72656 12.9297 4.72656Z" fill="#FFFBFF"/>
<defs>
<linearGradient id="paint0_linear_6_94" x1="10" y1="20" x2="10" y2="0" gradientUnits="userSpaceOnUse">
<stop stop-color="#FD3A84"/>
<stop offset="1" stop-color="#F642C9"/>
</linearGradient>
</defs>
</svg>
