<svg width="79" height="68" viewBox="0 0 79 68" fill="none" xmlns="http://www.w3.org/2000/svg">
<path d="M53.1025 0.170721C43.9192 1.28548 35.748 8.36627 33.3406 17.2986C25.3158 12.5713 14.2342 13.807 7.4481 20.1866C2.99211 24.3764 0.642692 31.9368 4.68611 36.5269C-0.606205 40.4016 -1.60209 48.9539 2.65981 53.9404C6.92171 58.9268 15.5238 59.2774 20.1759 54.6537C24.451 62.0394 32.5246 67.0817 41.0362 67.6843C45.9454 68.0329 51.7062 66.8246 56.1256 64.6774C57.4162 64.0504 65.4979 57.9675 63.4737 55.8874C67.759 60.2925 73.2444 63.7639 79.3283 64.6307C85.4132 65.4985 92.0896 63.4204 95.8302 58.5437C99.5718 53.667 99.5799 45.9765 95.1534 41.7125C99.7842 39.7421 102.985 34.8106 102.901 29.7784C102.82 24.9017 98.9804 19.1409 94.4136 17.1837C92.2705 16.2671 79.7307 16.821 80.2113 20.9589C79.5417 15.2032 76.5967 10.0704 72.3603 6.32477C67.2468 1.80272 60.2503 -0.697105 53.1025 0.170721Z" fill="white"/>
</svg>
