<svg width="283" height="266" viewBox="0 0 283 266" fill="none" xmlns="http://www.w3.org/2000/svg">
<path d="M142.132 73.8635C142.94 74.1061 143.749 74.3487 144.639 74.5914C145.367 74.7531 146.499 74.9149 147.146 75.3192C148.278 76.0471 148.116 79.2822 148.278 80.4953C148.359 80.9806 149.087 81.1423 149.41 80.8188C150.462 79.8483 151.513 78.3925 152.726 77.5838C152.969 77.422 153.212 77.3411 153.454 77.3411C154.748 78.1499 156.204 78.716 157.741 79.2013C158.307 79.363 158.792 78.8778 158.711 78.3117C158.469 77.422 158.145 76.5324 157.66 75.8045C157.336 74.9149 156.932 74.1061 156.366 73.3782C156.528 73.0547 156.689 72.8121 156.851 72.4886C157.66 71.0328 158.469 69.577 159.277 68.1213C159.601 67.5551 159.116 66.7464 158.469 66.989C157.094 67.3934 155.476 67.9595 154.101 67.3934C152.646 66.8272 151.998 65.048 150.947 64.0775C150.543 63.754 149.734 63.7539 149.653 64.401C149.249 66.2611 149.249 69.6579 147.227 70.3049C145.528 70.8711 143.911 71.5989 142.293 72.5695C141.485 72.893 141.485 73.6208 142.132 73.8635Z" fill="#B8DEFF"/>
<path d="M273.636 79.2012C273.07 78.9586 272.585 78.716 272.019 78.3925C271.614 78.1499 270.806 77.9881 270.401 77.5837C269.754 76.9367 270.239 74.8339 270.239 73.9443C270.239 73.6208 269.835 73.3782 269.512 73.6208C268.703 74.1869 267.813 74.9957 266.923 75.4001C266.762 75.4809 266.6 75.4809 266.438 75.4809C265.629 74.753 264.74 74.1869 263.769 73.7017C263.446 73.5399 263.041 73.7825 263.041 74.1869C263.041 74.8339 263.203 75.4001 263.446 75.9662C263.527 76.6132 263.769 77.1793 264.012 77.7455C263.85 77.9072 263.769 78.1498 263.608 78.3116C262.88 79.2012 262.152 80.0909 261.424 80.8996C261.181 81.2231 261.343 81.8702 261.828 81.7893C262.799 81.7084 263.931 81.4658 264.821 82.0319C265.71 82.598 265.953 83.8112 266.519 84.6199C266.762 84.8626 267.247 84.9434 267.409 84.5391C267.894 83.3259 268.298 81.0614 269.754 80.8996C270.967 80.7379 272.18 80.4144 273.313 80.01C273.879 79.9291 273.96 79.4439 273.636 79.2012Z" fill="#B8DEFF"/>
<path d="M21.8688 212.89C21.2218 212.566 20.5748 212.243 20.0086 211.919C19.4425 211.676 18.5529 211.353 18.1485 210.949C17.3397 210.14 17.9867 207.633 17.9867 206.581C17.9867 206.177 17.4206 205.934 17.0971 206.177C16.1266 206.824 15.0752 207.875 13.9429 208.28C13.7812 208.36 13.5385 208.36 13.3768 208.36C12.4063 207.552 11.3549 206.824 10.2226 206.258C9.81824 206.015 9.33298 206.339 9.33298 206.824C9.33298 207.633 9.49473 208.28 9.81824 209.007C9.97999 209.735 10.2226 210.463 10.5461 211.191C10.3844 211.434 10.2226 211.596 10.0609 211.838C9.17123 212.89 8.36247 213.941 7.47283 214.992C7.14932 215.397 7.39195 216.125 7.95808 216.044C9.09035 215.882 10.5461 215.72 11.5166 216.367C12.568 217.014 12.8107 218.551 13.6194 219.521C13.862 219.845 14.5091 219.926 14.7517 219.441C15.3178 217.985 15.8031 215.316 17.5823 215.073C19.0381 214.911 20.4939 214.507 21.8688 214.022C22.2732 213.698 22.354 213.051 21.8688 212.89Z" fill="#B8DEFF"/>
<path d="M20.6556 53.4827C19.766 53.0783 18.8764 52.593 18.0676 52.1887C17.3397 51.7843 16.0457 51.4608 15.4796 50.8946C14.4282 49.8432 15.2369 46.3656 15.2369 44.9098C15.2369 44.3437 14.509 44.0202 14.0238 44.3437C12.7298 45.2333 11.1931 46.6891 9.73735 47.2552C9.49472 47.3361 9.17122 47.417 8.92859 47.3361C7.63457 46.2038 6.17881 45.2333 4.56128 44.4245C3.99515 44.101 3.34814 44.5863 3.34814 45.2333C3.42902 46.2847 3.59076 47.2552 3.99515 48.2257C4.1569 49.2771 4.48041 50.2476 4.96566 51.2181C4.72303 51.5416 4.4804 51.7843 4.31865 52.1078C3.10551 53.5635 1.97324 55.0193 0.7601 56.4751C0.274843 57.0412 0.679225 58.0117 1.48799 57.9309C3.10551 57.7691 4.96566 57.4456 6.42143 58.3352C7.8772 59.2249 8.28158 61.3277 9.25209 62.6217C9.65648 63.1069 10.4652 63.1878 10.7887 62.5408C11.5975 60.5189 12.2445 56.7986 14.6708 56.4751C16.6927 56.2325 18.6337 55.7472 20.5748 55.0193C21.1409 54.6149 21.3026 53.7253 20.6556 53.4827Z" fill="#B8DEFF"/>
<path d="M228.588 13.6916C229.316 13.3681 229.963 13.0446 230.691 12.6402C231.257 12.3167 232.308 12.0741 232.713 11.5888C233.522 10.7801 232.956 7.94941 232.875 6.81714C232.875 6.33188 233.441 6.08925 233.845 6.33188C234.897 7.05976 236.11 8.19203 237.242 8.67729C237.485 8.75816 237.646 8.75816 237.889 8.75816C238.94 7.86852 240.073 7.05977 241.286 6.49363C241.771 6.25101 242.256 6.57451 242.256 7.14064C242.256 7.9494 242.014 8.75816 241.771 9.48605C241.609 10.2948 241.367 11.1036 240.962 11.8315C241.124 12.0741 241.286 12.3167 241.528 12.5593C242.499 13.6916 243.389 14.8239 244.359 15.9561C244.683 16.3605 244.44 17.1693 243.793 17.0884C242.58 16.9267 241.043 16.684 239.911 17.4119C238.698 18.1398 238.455 19.7573 237.646 20.8087C237.323 21.2131 236.676 21.294 236.433 20.7278C235.786 19.1103 235.301 16.1988 233.36 15.9561C231.742 15.7944 230.206 15.39 228.75 14.743C228.265 14.6621 228.103 13.9342 228.588 13.6916Z" fill="#B8DEFF"/>
<path d="M247.837 255.592C248.807 255.107 249.697 254.622 250.667 254.217C251.476 253.813 252.851 253.409 253.498 252.842C254.63 251.71 253.822 247.909 253.741 246.372C253.741 245.725 254.549 245.402 255.035 245.725C256.49 246.696 258.108 248.232 259.645 248.879C259.968 248.96 260.211 249.041 260.534 248.96C261.99 247.747 263.527 246.696 265.225 245.806C265.872 245.483 266.6 245.968 266.519 246.696C266.438 247.828 266.196 248.879 265.872 249.931C265.71 251.063 265.306 252.115 264.821 253.166C265.063 253.489 265.306 253.813 265.549 254.136C266.843 255.673 268.137 257.291 269.431 258.827C269.916 259.393 269.511 260.526 268.703 260.445C267.004 260.202 264.902 259.959 263.365 260.849C261.747 261.82 261.424 264.084 260.292 265.459C259.887 265.944 258.917 266.106 258.674 265.378C257.784 263.195 257.057 259.151 254.469 258.827C252.285 258.585 250.182 258.018 248.079 257.21C247.271 256.886 247.109 255.916 247.837 255.592Z" fill="#B8DEFF"/>
<path d="M262.88 160.401C262.475 160.239 262.152 160.077 261.747 159.835C261.424 159.673 260.858 159.511 260.615 159.269C260.13 158.783 260.534 157.328 260.534 156.762C260.534 156.519 260.211 156.357 260.049 156.519C259.483 156.923 258.836 157.489 258.27 157.732C258.189 157.813 258.027 157.813 257.946 157.813C257.38 157.328 256.814 156.923 256.086 156.6C255.843 156.519 255.601 156.681 255.601 156.923C255.601 157.409 255.682 157.813 255.843 158.136C255.924 158.541 256.086 159.026 256.248 159.35C256.167 159.511 256.086 159.592 256.005 159.754C255.52 160.32 255.035 160.967 254.469 161.533C254.307 161.776 254.388 162.18 254.792 162.18C255.439 162.099 256.248 162.018 256.895 162.342C257.542 162.746 257.623 163.555 258.108 164.121C258.27 164.283 258.593 164.364 258.755 164.121C259.078 163.312 259.402 161.695 260.373 161.614C261.262 161.533 262.071 161.291 262.799 160.967C263.122 160.886 263.122 160.482 262.88 160.401Z" fill="#B8DEFF"/>
<path d="M42.8966 24.2055C42.3304 23.9629 41.8452 23.6394 41.279 23.3967C40.7938 23.1541 39.985 22.9115 39.6615 22.588C39.0145 21.941 39.4998 19.7573 39.4998 18.8677C39.4998 18.5442 39.0145 18.3015 38.7719 18.4633C37.9631 19.0294 36.9926 19.9191 36.103 20.2426C35.9412 20.3234 35.7795 20.3234 35.6177 20.3234C34.809 19.5956 33.9193 19.0294 32.9488 18.5442C32.6253 18.3824 32.14 18.625 32.2209 19.0294C32.2209 19.6764 32.3827 20.3234 32.6253 20.8896C32.7062 21.5366 32.9488 22.1836 33.2723 22.7497C33.1106 22.9115 33.0297 23.1541 32.8679 23.3159C32.14 24.2055 31.4122 25.0951 30.6843 25.9848C30.4416 26.3083 30.6034 26.9553 31.0887 26.8744C32.0592 26.7935 33.2723 26.5509 34.162 27.117C35.0516 27.6832 35.2942 28.9772 35.9412 29.786C36.1839 30.1095 36.75 30.1095 36.9117 29.7051C37.397 28.4919 37.8014 26.1465 39.338 25.9848C40.632 25.823 41.7643 25.4995 42.9775 25.0951C43.1392 25.0143 43.301 24.4481 42.8966 24.2055Z" fill="#B8DEFF"/>
<path d="M55.4324 251.063C54.3001 250.497 53.2487 250.012 52.1973 249.446C51.3077 248.96 49.6093 248.556 48.9623 247.828C47.5874 246.453 48.6388 242.086 48.7196 240.307C48.7196 239.579 47.83 239.174 47.2639 239.579C45.5655 240.711 43.7053 242.49 41.8452 243.218C41.5217 243.38 41.1982 243.38 40.7938 243.38C39.1763 241.924 37.3161 240.711 35.3751 239.74C34.6472 239.417 33.8384 239.902 33.8384 240.711C33.9193 242.005 34.1619 243.299 34.6472 244.431C34.8898 245.725 35.2942 247.019 35.8603 248.152C35.5368 248.556 35.2942 248.879 35.0516 249.284C33.5958 251.063 32.0592 252.923 30.6034 254.703C30.0373 255.35 30.4416 256.644 31.493 256.563C33.4341 256.32 35.8604 255.997 37.7205 257.048C39.5807 258.18 39.985 260.768 41.279 262.467C41.7643 263.033 42.8157 263.195 43.1392 262.386C44.1097 259.879 44.9994 255.188 48.0726 254.864C50.5798 254.541 53.087 253.975 55.4324 253.004C56.0794 252.6 56.2411 251.467 55.4324 251.063Z" fill="#B8DEFF"/>
<path d="M158.388 135.087C158.388 135.087 164.777 136.704 171.49 143.902C178.283 151.1 189.363 148.836 194.297 146.652C199.23 144.468 219.934 139.777 232.147 152.475C244.359 165.173 238.94 180.216 236.999 184.017C235.058 187.818 221.875 203.831 193.65 202.295C165.424 200.758 138.573 199.949 124.743 190.406C110.833 180.943 147.227 134.601 158.388 135.087Z" fill="url(#paint0_linear_6_36)"/>
<path opacity="0.12" d="M179.173 170.591C179.173 170.591 184.268 182.318 180.467 188.95C176.666 195.582 169.549 197.847 169.549 197.847L168.821 196.553C168.821 196.553 175.533 192.509 177.96 188.384C180.467 184.098 181.195 180.054 179.173 170.591Z" fill="#040907"/>
<path opacity="0.12" d="M148.844 175.444C148.844 175.444 156.204 173.422 163.645 177.223C163.645 177.223 157.013 172.613 150.381 172.613C143.749 172.613 148.844 175.444 148.844 175.444Z" fill="#040907"/>
<path opacity="0.12" d="M192.527 171.719C192.527 171.719 183.001 186.409 191.989 201.642C200.976 216.875 188.088 203.079 188.088 203.079C188.088 203.079 180.594 191.003 192.527 171.719Z" fill="#040907"/>
<path d="M121.67 170.106C121.67 170.106 105.98 165.173 96.3557 152.313C86.7315 139.454 87.9446 122.389 95.1426 110.258C102.341 98.1263 123.045 87.6124 142.859 96.7514C162.674 105.89 168.093 123.683 169.468 129.587C170.924 135.491 136.389 155.953 136.389 155.953L121.67 170.106Z" fill="#C98638"/>
<path d="M166.314 130.153C166.314 130.153 166.88 126.918 169.549 127.242C172.217 127.565 174.159 131.69 174.159 134.925C174.159 138.241 170.276 139.616 170.276 139.616C170.276 139.616 176.666 156.519 162.108 169.54C147.55 182.48 132.346 179.002 125.875 176.576C120.133 174.392 109.862 165.415 111.318 155.872C112.046 151.181 112.046 145.277 119.001 138.726C122.236 135.734 124.501 131.932 124.501 131.932C124.501 131.932 127.412 137.189 122.883 142.77C118.354 148.35 118.435 151.424 118.435 151.424C118.435 151.424 118.92 148.755 125.309 144.549C131.699 140.344 136.551 135.734 139.867 127.97C143.264 120.205 142.132 113.978 142.132 113.978C142.132 113.978 151.351 114.787 152.888 120.691C154.425 126.595 152.079 128.293 152.079 128.293C152.079 128.293 155.719 126.595 155.881 121.58C156.042 121.58 161.865 123.117 166.314 130.153Z" fill="#FFDED2"/>
<path d="M135.985 158.622C136.066 158.379 136.147 158.217 136.147 157.975C136.309 157.489 135.581 157.166 135.419 157.651C135.257 158.298 135.014 158.945 134.772 159.592C133.801 161.533 133.478 162.018 132.507 163.07C131.294 164.445 129.919 165.254 128.302 166.062C128.221 166.062 128.221 166.143 128.221 166.224C128.14 166.224 128.059 166.305 127.897 166.305C127.493 166.386 127.574 166.952 127.978 166.871C128.14 166.871 128.302 166.871 128.464 166.79C128.464 166.79 128.464 166.79 128.464 166.871C128.383 166.952 128.302 167.114 128.221 167.195C128.221 167.195 128.14 167.275 128.14 167.356L128.059 167.437C127.978 167.437 127.978 167.518 127.978 167.599H127.897C127.736 167.599 127.736 167.761 127.817 167.842C128.14 167.922 128.544 167.599 128.787 167.356C129.03 167.195 129.272 166.952 129.353 166.709C129.677 166.628 129.919 166.548 130.162 166.386C130.081 166.709 130 167.033 129.919 167.275C129.838 167.356 129.677 167.518 129.596 167.599C129.434 167.68 129.596 167.922 129.758 167.842C130.243 167.437 130.809 166.709 130.89 166.062C131.213 165.901 131.537 165.658 131.86 165.415C131.86 165.739 131.86 166.143 131.699 166.467C131.618 166.628 131.86 166.79 132.022 166.548C132.184 166.143 132.346 165.82 132.507 165.415C132.588 165.253 132.669 165.011 132.588 164.849C134.367 163.232 135.662 161.048 135.985 158.622Z" fill="#534741"/>
<path opacity="0.26" d="M134.125 157.651C134.206 157.328 134.125 156.923 133.72 156.761C130.89 155.387 126.199 154.982 124.824 158.541C123.934 160.886 124.905 165.415 128.14 165.173C131.052 165.011 133.801 161.21 134.206 158.541C134.287 158.217 134.287 157.894 134.125 157.651Z" fill="white"/>
<path d="M158.064 141.395C157.741 141.719 157.336 141.88 156.932 142.042C157.094 141.799 157.255 141.476 157.417 141.233C158.064 140.748 158.469 140.182 158.711 139.373C158.792 139.211 158.549 139.05 158.469 139.211C158.307 139.535 158.064 139.697 157.822 139.939C157.822 139.697 157.741 139.454 157.579 139.211C157.498 139.13 157.417 139.05 157.336 139.05C157.175 138.888 156.932 138.807 156.851 139.13C155.719 142.366 153.778 145.115 150.704 146.409C150.3 146.571 149.896 146.733 149.491 146.814C149.41 146.814 149.33 146.895 149.249 146.895C148.925 146.975 149.006 147.461 149.33 147.38C149.734 147.299 150.219 147.137 150.624 146.975C152.484 146.409 154.182 145.358 155.476 143.983C155.881 143.983 156.285 143.983 156.689 143.74C156.77 143.66 156.932 143.66 157.013 143.579C157.175 143.498 157.013 143.174 156.851 143.255C156.77 143.255 156.689 143.336 156.608 143.336H156.528C156.366 143.417 156.123 143.336 155.961 143.336C156.123 143.093 156.366 142.932 156.528 142.689C157.255 142.608 157.983 142.204 158.388 141.638V141.557C158.388 141.557 158.226 141.314 158.064 141.395Z" fill="#534741"/>
<path opacity="0.26" d="M155.395 138.645C155.153 138.241 154.829 137.998 154.425 137.836C152.484 135.976 148.359 136.947 146.822 138.969C145.124 141.233 145.367 146.652 149.33 145.762C151.271 145.358 152.888 144.549 154.263 143.093C155.234 141.961 156.447 140.182 155.395 138.645Z" fill="white"/>
<path opacity="0.14" d="M114.795 97.9645C114.795 97.9645 104.686 101.604 99.9142 109.206C93.2015 119.72 101.936 122.955 112.127 112.037C122.236 101.119 133.64 100.633 142.293 103.869C150.947 107.104 155.153 110.581 153.939 107.346C152.726 104.111 142.536 97.9645 135.661 96.4279C128.787 94.8913 123.692 95.2148 114.795 97.9645Z" fill="#FFF4EC"/>
<path d="M124.015 150.858C124.015 150.777 123.934 150.615 123.773 150.615C122.56 150.291 121.993 151.262 121.508 152.232C121.508 152.313 121.508 152.394 121.508 152.475C121.427 152.556 121.427 152.637 121.346 152.799C121.266 152.879 121.266 152.96 121.185 153.041C121.104 153.122 121.104 153.203 121.023 153.284C121.023 153.365 120.942 153.365 120.942 153.446C120.457 154.335 120.133 155.306 119.891 156.357C119.486 157.732 119.163 159.188 119.244 160.644C119.244 160.886 119.163 161.21 119.163 161.452C119.163 161.857 119.81 161.938 119.81 161.533C119.81 161.21 119.891 160.967 119.891 160.644C119.891 160.644 119.972 160.563 119.972 160.482C120.133 159.835 120.214 159.107 120.295 158.46C120.699 156.923 121.266 155.467 122.155 154.093C122.883 153.122 124.339 151.99 124.015 150.858Z" fill="#534741"/>
<path d="M147.712 129.425C147.065 129.264 146.337 129.425 145.609 129.668C144.315 129.991 143.021 130.558 141.889 131.285C140.999 131.933 139.786 132.822 139.301 133.874C138.897 134.359 138.492 135.006 139.139 135.41C139.22 135.491 139.382 135.491 139.463 135.41C140.676 134.682 141.323 133.065 142.374 132.175C143.102 131.609 143.83 131.124 144.72 130.719C145.205 130.477 145.69 130.315 146.175 130.234C146.337 130.234 146.499 130.153 146.661 130.153C146.903 130.153 147.146 130.072 147.308 129.911C147.308 129.991 147.389 130.072 147.469 130.072C147.469 130.072 147.469 130.072 147.55 130.072C147.712 130.153 147.874 130.072 147.955 129.911V129.83C148.036 129.749 147.874 129.506 147.712 129.425Z" fill="#534741"/>
<path d="M147.308 158.056C147.308 157.975 147.308 157.975 147.227 157.975C147.227 157.975 147.227 157.975 147.227 157.894C147.146 157.732 146.903 157.813 146.903 157.975C146.903 157.975 146.822 158.056 146.903 158.136C146.903 158.298 146.984 158.541 146.984 158.703C146.903 159.592 146.337 160.239 145.528 160.563C145.043 160.563 144.558 160.401 144.073 160.239C143.911 160.158 143.83 160.32 143.83 160.401C143.749 160.401 143.668 160.563 143.749 160.644C143.911 160.805 144.153 160.886 144.315 160.967C144.962 161.452 146.095 161.371 146.742 160.967C147.55 160.401 147.631 159.107 147.308 158.056Z" fill="#534741"/>
<path d="M154.425 159.43C153.535 163.151 150.543 165.577 147.227 167.033C147.065 167.114 147.146 167.356 147.308 167.275C150.785 166.224 154.101 163.07 154.829 159.511C154.829 159.269 154.506 159.188 154.425 159.43Z" fill="#534741"/>
<path d="M155.314 159.35C155.234 158.945 154.667 158.703 154.263 158.945C154.101 159.026 154.182 159.269 154.425 159.188C154.667 159.107 154.91 159.269 154.991 159.511C155.072 159.592 155.395 159.511 155.314 159.35Z" fill="#534741"/>
<path d="M147.146 167.356C146.984 167.356 146.984 167.356 146.903 167.195C146.903 167.033 146.903 166.952 146.984 166.79C146.984 166.709 146.822 166.628 146.742 166.709C146.499 166.871 146.499 167.275 146.661 167.518C146.822 167.68 147.146 167.842 147.227 167.599C147.308 167.437 147.227 167.356 147.146 167.356Z" fill="#534741"/>
<path d="M155.476 162.908C155.395 162.665 155.153 162.746 155.072 162.908C154.667 164.93 153.212 166.467 151.351 167.114C151.19 167.195 151.271 167.356 151.351 167.437C151.351 167.518 151.432 167.599 151.513 167.599C154.182 167.761 156.123 165.496 155.476 162.908Z" fill="#F1B096"/>
<path opacity="0.39" d="M146.175 158.217C146.014 158.056 145.771 157.894 145.528 157.975C145.367 157.975 145.205 158.056 145.043 158.217C144.639 158.217 144.315 158.46 144.154 158.783C143.83 159.269 143.992 159.916 144.639 160.077C145.043 160.158 145.528 159.997 145.771 159.754C145.933 159.592 146.095 159.43 146.175 159.269C146.175 159.269 146.175 159.269 146.175 159.188C146.256 159.107 146.256 159.026 146.337 158.864C146.337 158.703 146.337 158.46 146.175 158.217Z" fill="white"/>
<path opacity="0.56" d="M158.064 148.027C158.145 149.644 160.167 149.806 161.299 149.24C161.946 148.916 162.593 148.431 163.078 147.865C163.645 147.299 164.13 146.571 164.534 145.843C165.1 144.711 165.909 142.285 164.858 141.152C163.726 139.939 161.704 141.638 160.895 142.446C159.682 143.74 157.902 146.167 158.064 148.027Z" fill="#FCAFA7"/>
<path opacity="0.56" d="M135.985 169.136C135.985 169.136 133.963 166.871 130.324 170.349C126.684 173.826 127.412 176.657 130.89 176.01C132.346 175.767 134.206 174.797 135.5 172.775C136.308 171.319 136.713 170.349 135.985 169.136Z" fill="#FCAFA7"/>
<path opacity="0.26" d="M150.947 120.125C150.785 120.044 150.704 119.882 150.543 119.801C150.381 119.558 150.138 119.397 149.896 119.316C148.602 118.022 142.293 119.073 142.132 121.419C141.97 121.661 141.97 121.985 142.212 122.308C142.374 122.47 142.536 122.632 142.698 122.632C143.183 123.36 144.396 122.874 145.043 122.713C146.984 122.227 148.844 121.58 150.704 120.933C151.028 120.852 151.271 120.367 150.947 120.125Z" fill="white"/>
<path d="M168.012 133.227C168.012 133.227 168.093 129.83 169.549 129.991C171.004 130.234 171.813 132.256 170.438 135.734C169.063 139.211 169.629 135.41 168.012 133.227Z" fill="#F5B89D"/>
<path d="M233.498 187.797C241.853 179.586 243.12 168.837 239.761 159.764C238.446 156.099 236.353 152.714 233.693 149.888C231.032 147.062 227.808 144.749 224.139 143.272C215.078 139.606 203.44 136.999 191.636 147.706C191.13 155.654 194.873 165.323 194.873 165.323C190.463 163.315 189.49 150.8 189.657 148.196C189.263 147.952 188.73 147.792 188.144 147.81C187.692 147.834 187.194 147.901 186.736 148.06C186.278 148.218 185.769 148.51 185.346 148.895C184.313 149.793 183.566 154.797 183.593 157.095C183.592 160.022 184.37 163.616 185.462 167.225C186.634 171.062 188.253 174.966 189.771 178.144C190.842 175.447 192.222 172.9 193.857 170.679L193.859 170.634L193.906 170.592C197.559 166.619 202.013 164.8 206.339 164.732C209.268 164.689 212.072 165.405 214.577 166.738C217.036 168.069 219.15 170.059 220.569 172.467C222.53 175.801 223.233 180.022 221.889 184.688C220.974 187.888 219.682 190.485 218.28 192.536C222.364 190.925 226.999 189.07 231.367 188.103C232.095 187.957 232.82 187.856 233.498 187.797Z" fill="white"/>
<path d="M222.28 34.5576C222.199 33.5871 220.743 33.668 220.743 34.6385C221.148 45.2333 222.118 55.7472 222.28 66.342C222.522 77.3411 222.037 88.1785 220.824 99.0968C220.743 99.7438 221.714 99.9864 221.875 99.3394C225.111 78.1499 224.221 55.8281 222.28 34.5576Z" fill="white"/>
<path d="M235.22 118.588C236.918 115.515 234.411 110.824 232.228 108.074C235.301 105.648 238.051 102.898 239.021 98.935C239.264 97.8836 238.536 97.0749 237.485 97.1558C235.544 97.3984 233.683 97.641 231.742 97.8028C230.772 97.8836 228.507 98.3689 227.618 97.7219C227.132 97.3984 226.809 95.9426 226.566 95.4573C225.758 93.759 225.03 90.443 222.846 90.2004C221.309 90.0386 220.339 91.3327 219.692 92.5458C218.398 95.2147 217.67 98.2071 217.104 101.119C213.95 102.089 211.038 103.626 208.369 105.729C207.56 106.295 207.641 107.67 208.531 108.236C211.119 109.772 213.788 110.824 216.699 111.471C215.891 115.11 216.295 118.75 217.993 122.146C218.398 123.036 219.611 123.279 220.339 122.632C222.361 120.772 224.221 118.669 225.919 116.485C228.507 118.426 233.522 121.742 235.22 118.588Z" fill="#B8DEFF"/>
<path opacity="0.54" d="M226 99.7438C226.243 99.582 226.324 99.2585 226.162 98.935C225.353 97.0749 224.544 95.2147 223.736 93.3546C223.736 93.1928 223.655 93.112 223.574 92.9502C223.412 92.7076 223.17 92.7076 222.927 92.8693C222.765 92.8693 222.684 92.9502 222.603 93.112C222.28 93.1928 221.956 93.5163 221.956 93.9207C222.118 95.2956 222.927 101.847 225.677 100.472C226 100.31 226.081 99.9864 226 99.7438Z" fill="white"/>
<path opacity="0.54" d="M236.595 99.4203C236.838 99.0159 236.514 98.3689 235.948 98.5307C233.441 99.0159 230.853 99.5012 228.265 99.9056C227.699 99.9864 227.537 100.795 228.022 101.119C228.346 101.361 228.588 101.442 228.912 101.604C228.507 102.008 228.831 102.898 229.478 102.655C231.823 102.008 234.088 101.2 236.271 100.229C236.676 100.067 236.757 99.7438 236.595 99.4203Z" fill="white"/>
<path opacity="0.54" d="M217.67 105.082C217.913 105.001 218.074 104.839 218.155 104.677C218.479 104.354 218.398 103.707 217.913 103.545C217.832 103.545 217.67 103.545 217.589 103.464C217.751 103.141 217.589 102.655 217.104 102.655C216.619 102.655 216.295 102.898 215.891 103.141C215.486 103.383 215.001 103.545 214.597 103.788C214.435 103.788 214.354 103.868 214.192 103.868C214.111 103.868 214.03 103.949 213.95 104.03C213.869 104.03 213.788 104.111 213.788 104.111C212.494 104.677 211.2 105.243 209.987 106.052C209.421 106.457 209.906 107.346 210.553 107.184C210.795 107.104 211.038 107.023 211.281 106.942C211.442 107.104 211.685 107.184 212.009 107.104C212.251 107.023 212.413 106.942 212.656 106.861C213.95 106.537 215.244 106.133 216.376 105.486C216.78 105.324 217.185 105.243 217.67 105.082Z" fill="white"/>
<path d="M276.71 167.275C170.277 230.44 68.9387 170.349 99.5099 88.8256C130.081 7.38327 224.302 46.5273 224.302 46.5273C229.397 47.5787 230.853 44.0202 226.324 37.8736C216.619 24.6099 154.991 -26.8273 70.4754 17.978C-1.58527 56.1516 -18.6501 197.442 78.2395 246.858C97.6497 257.533 123.126 265.297 155.881 265.055C258.593 268.29 279.621 182.399 282.371 174.312C285.363 165.254 276.71 167.275 276.71 167.275Z" fill="#B0D9FE"/>
<path d="M217.427 44.2628C217.427 44.2628 219.692 37.9544 224.949 36.6604C226.405 36.3369 224.868 31.727 219.773 37.4692C214.678 43.2114 215.001 47.0934 218.721 44.748" fill="white"/>
<path opacity="0.2" d="M134.61 5.52311C117.222 6.49362 104.282 9.72867 95.0617 13.2063C94.9808 13.2063 94.8191 13.2872 94.7382 13.2872C75.9749 19.9191 45.242 36.7413 28.7433 77.0985C12.2445 117.456 18.6338 163.232 26.4787 177.547C34.3237 191.862 41.1173 187.818 38.1249 179.407C35.1325 170.996 23.8907 149.321 39.2572 93.5972C52.44 45.7186 102.826 27.4405 115.523 23.1541C117.626 22.4262 118.758 22.1027 118.758 22.1027C118.758 22.1027 118.758 22.1027 118.758 22.0218C128.868 18.7868 139.786 16.2796 151.352 16.1179C190.172 15.7135 201.009 28.0876 200.767 22.9924C200.362 17.8972 168.983 3.58208 134.61 5.52311Z" fill="white"/>
<path d="M213.222 42.8879L211.362 42.3218C211.362 42.3218 210.553 36.4178 218.074 29.2198C218.074 29.2198 217.993 27.1979 215.972 27.2788C215.972 27.2788 213.383 28.0067 210.715 35.3664C208.45 41.513 209.501 43.1305 210.876 43.7775C212.17 44.5054 213.222 42.8879 213.222 42.8879Z" fill="white"/>
<path opacity="0.2" d="M125.714 198.251C125.714 198.251 150.219 212.323 193.973 209.007C237.727 205.692 264.093 185.634 269.997 181.186C275.901 176.738 281.158 173.018 278.489 170.834C275.901 168.569 265.144 183.451 235.867 191.619C206.59 199.788 185.4 200.92 157.983 194.612C130.566 188.303 124.986 179.407 118.678 178.275C112.369 177.061 106.789 190.082 125.714 198.251Z" fill="white"/>
<defs>
<linearGradient id="paint0_linear_6_36" x1="151.5" y1="135" x2="242.5" y2="204" gradientUnits="userSpaceOnUse">
<stop stop-color="#F8CABA"/>
<stop offset="1" stop-color="#FADFD5"/>
</linearGradient>
</defs>
</svg>
