<svg width="20" height="20" viewBox="0 0 20 20" fill="none" xmlns="http://www.w3.org/2000/svg">
<path fill-rule="evenodd" clip-rule="evenodd" d="M19.8215 8.00391H10.2113C10.2113 9.00336 10.2113 11.002 10.2052 12.0015H15.774C15.5606 13.0009 14.804 14.4004 13.735 15.105C13.735 15.105 13.7329 15.1109 13.7309 15.1099C12.3096 16.0484 10.4339 16.2613 9.04116 15.9815C6.85813 15.5477 5.13048 13.9645 4.42901 11.9536C4.43309 11.9506 4.43617 11.9229 4.43923 11.9209C4.00018 10.6736 4.00018 9.00336 4.43923 8.00391H4.43821C5.00388 6.16695 6.78358 4.49098 8.96968 4.03224C10.7279 3.65945 12.7119 4.063 14.171 5.42823C14.365 5.23834 16.8564 2.80581 17.0432 2.60792C12.0584 -1.90654 4.07675 -0.31848 1.09014 5.51124H1.08912C1.08912 5.51124 1.09015 5.51148 1.08402 5.52247C-0.393454 8.38586 -0.332192 11.7599 1.09423 14.4863C1.09015 14.4893 1.08709 14.4911 1.08402 14.4941C2.37669 17.0027 4.72921 18.9266 7.56368 19.6592C10.5748 20.4487 14.4068 19.9091 16.9738 17.5874L16.9769 17.5903C19.1517 15.6314 20.5056 12.2945 19.8215 8.00391Z" fill="#47A1F1"/>
</svg>
