<svg width="21" height="24" viewBox="0 0 21 24" fill="none" xmlns="http://www.w3.org/2000/svg">
<path d="M4.71971 19.399C4.46968 21.1492 4.1125 22.8995 3.79103 22.8637C3.32669 22.828 3.1481 21.1492 3.07666 19.0776" stroke="#6BB5F6" stroke-miterlimit="10" stroke-linecap="round" stroke-linejoin="round"/>
<path d="M6.43435 22.9352C6.36291 23.078 6.29147 23.1495 6.18432 23.1495C5.79141 23.1495 5.50567 21.2921 5.36279 19.4705" stroke="#6BB5F6" stroke-miterlimit="10" stroke-linecap="round" stroke-linejoin="round"/>
<path d="M11.1489 9.36212V9.64787V9.79074V9.96934V11.1123" stroke="#6BB5F6" stroke-miterlimit="10" stroke-linecap="round" stroke-linejoin="round"/>
<path d="M11.7206 22.6137C11.8277 22.9352 11.9706 23.1495 12.1135 23.1495C13.0421 23.1495 13.3636 15.5414 13.3993 14.3984C13.3993 14.2913 13.3993 14.2556 13.3993 14.2556C13.3993 14.2556 13.3993 14.2913 13.3993 14.3627C13.5065 15.4343 14.2923 22.8637 15.0781 22.7923C16.5783 22.6494 15.7925 7.82625 15.7925 7.68337C15.7925 7.68337 21.1145 2.03985 20.2573 1.11117C19.4715 0.218212 15.6139 4.96877 13.0064 5.93317C12.3992 6.14748 11.542 6.25463 10.6133 6.25463" stroke="#6BB5F6" stroke-miterlimit="10" stroke-linecap="round" stroke-linejoin="round"/>
<path d="M10.792 8.32629C10.7206 8.32629 10.6491 8.32629 10.542 8.32629H10.792Z" stroke="#6BB5F6" stroke-miterlimit="10" stroke-linecap="round" stroke-linejoin="round"/>
<path d="M12.5423 4.57588C13.5286 4.57588 14.3282 3.77629 14.3282 2.78995C14.3282 1.80361 13.5286 1.00403 12.5423 1.00403C11.5559 1.00403 10.7563 1.80361 10.7563 2.78995C10.7563 3.77629 11.5559 4.57588 12.5423 4.57588Z" stroke="#6BB5F6" stroke-miterlimit="10"/>
<path d="M6.04146 18.4346C3.71976 18.3275 0.862278 17.5059 1.00515 16.4344C1.00515 16.4344 3.75547 10.2908 3.71976 8.11199C3.68404 6.50466 1.57665 2.00413 2.79107 1.7541C3.96978 1.53979 4.9699 6.75469 6.39864 7.71909C7.11301 8.21914 8.8275 8.25486 10.3634 8.29058H10.5063H10.7563H11.1492" stroke="#6BB5F6" stroke-miterlimit="10" stroke-linecap="round" stroke-linejoin="round"/>
<path d="M7.86323 13.5769C6.39877 12.934 4.3271 11.1123 3.75561 12.041C3.04124 13.1126 7.32745 15.8272 7.32745 15.8272" stroke="#6BB5F6" stroke-miterlimit="10" stroke-linecap="round" stroke-linejoin="round"/>
<path d="M13.4353 14.3627C13.4353 14.2913 13.4353 14.2556 13.4353 14.2556C13.4353 14.2556 13.3996 14.2913 13.4353 14.3627Z" stroke="#6BB5F6" stroke-miterlimit="10" stroke-linecap="round" stroke-linejoin="round"/>
<path d="M9.04153 19.149C9.04153 19.149 9.39871 23.1495 10.1845 23.1495C11.3632 23.1495 11.1132 15.0414 11.1132 15.0414C11.1132 15.0414 14.435 12.3268 13.7206 11.4696C12.8634 10.398 10.1131 13.7198 8.72006 13.7913C7.39848 13.8627 4.46956 10.8981 3.71947 12.041C3.0051 13.1126 7.29132 15.8272 7.29132 15.8272C7.29132 15.8272 6.50551 23.1495 8.04141 23.1495C9.04153 23.1495 9.04153 19.149 9.04153 19.149Z" stroke="#6BB5F6" stroke-miterlimit="10" stroke-linecap="round" stroke-linejoin="round"/>
<path d="M8.75615 12.6125C9.48604 12.6125 10.0777 12.0208 10.0777 11.2909C10.0777 10.5611 9.48604 9.96936 8.75615 9.96936C8.02626 9.96936 7.43457 10.5611 7.43457 11.2909C7.43457 12.0208 8.02626 12.6125 8.75615 12.6125Z" stroke="#6BB5F6" stroke-miterlimit="10" stroke-linecap="round" stroke-linejoin="round"/>
<path d="M8.07743 6.86182C9.06377 6.86182 9.86335 6.06224 9.86335 5.0759C9.86335 4.08956 9.06377 3.28998 8.07743 3.28998C7.09109 3.28998 6.2915 4.08956 6.2915 5.0759C6.2915 6.06224 7.09109 6.86182 8.07743 6.86182Z" stroke="#6BB5F6" stroke-miterlimit="10"/>
</svg>
