<svg width="24" height="24" viewBox="0 0 24 24" fill="none" xmlns="http://www.w3.org/2000/svg">
<path d="M4.92004 20.28L6.69005 21.65C6.92005 21.88 7.43004 21.99 7.78004 21.99H9.95004C10.64 21.99 11.38 21.48 11.55 20.79L12.92 16.62C13.21 15.82 12.69 15.13 11.83 15.13H9.54005C9.20005 15.13 8.91005 14.8399 8.97005 14.4399L9.26005 12.61C9.37005 12.1 9.03004 11.52 8.52004 11.35C8.06004 11.18 7.49005 11.41 7.26005 11.75L4.92004 15.24" stroke="white" stroke-width="1.5" stroke-miterlimit="10"/>
<path d="M2 20.28V14.6801C2 13.8801 2.34 13.59 3.14 13.59H3.71C4.51 13.59 4.85 13.8801 4.85 14.6801V20.28C4.85 21.08 4.51 21.37 3.71 21.37H3.14C2.34 21.37 2 21.09 2 20.28Z" stroke="white" stroke-width="1.5" stroke-linecap="round" stroke-linejoin="round"/>
<path d="M19.0799 3.71997L17.3099 2.34998C17.0799 2.11998 16.5699 2.01001 16.2199 2.01001H14.0499C13.3599 2.01001 12.6199 2.51996 12.4499 3.20996L11.0799 7.38C10.7899 8.18 11.3099 8.87 12.1699 8.87H14.4599C14.7999 8.87 15.0899 9.16006 15.0299 9.56006L14.7399 11.39C14.6299 11.9 14.9699 12.48 15.4799 12.65C15.9399 12.82 16.5099 12.59 16.7399 12.25L19.0799 8.76001" stroke="white" stroke-width="1.5" stroke-miterlimit="10"/>
<path d="M21.9999 3.71997V9.31995C21.9999 10.1199 21.6599 10.41 20.8599 10.41H20.2899C19.4899 10.41 19.1499 10.1199 19.1499 9.31995V3.71997C19.1499 2.91997 19.4899 2.63 20.2899 2.63H20.8599C21.6599 2.63 21.9999 2.90997 21.9999 3.71997Z" stroke="white" stroke-width="1.5" stroke-linecap="round" stroke-linejoin="round"/>
</svg>
