<svg width="24" height="24" viewBox="0 0 24 24" fill="none" xmlns="http://www.w3.org/2000/svg">
<path d="M12.512 23.9999C12.3211 23.9999 12.1314 23.9999 11.9405 23.9866C8.90586 23.8393 6.02723 22.5979 3.83722 20.492C1.64722 18.3862 0.294071 15.5584 0.0281336 12.5318C-0.145991 9.95418 0.491367 7.38675 1.85075 5.18983C3.21014 2.99291 5.22331 1.2768 7.60772 0.282335C9.00065 -0.301397 9.7384 0.150632 10.0554 0.47096C10.3332 0.795969 10.4995 1.20149 10.5298 1.62797C10.5601 2.05446 10.4529 2.47943 10.2239 2.84049C9.71149 4.01881 9.45107 5.29125 9.45937 6.57615C9.48986 7.95941 9.82011 9.31959 10.4273 10.5628C11.0346 11.806 11.9043 12.9027 12.9765 13.7772C14.0488 14.6516 15.298 15.283 16.6379 15.6278C17.9779 15.9725 19.3767 16.0225 20.7378 15.7741C22.2167 15.5085 22.8272 16.0989 23.0616 16.4739C23.2959 16.8489 23.5582 17.6637 22.6687 18.8781C21.4982 20.4708 19.9683 21.7647 18.2034 22.6547C16.4385 23.5447 14.4885 24.0056 12.512 23.9999ZM1.69785 12.4146C1.89753 14.6161 2.76235 16.7046 4.17742 18.4028C5.59249 20.101 7.4908 21.3285 9.62013 21.922C11.7495 22.5155 14.009 22.4471 16.0985 21.7257C18.188 21.0044 20.0085 19.6643 21.3182 17.8836C21.4359 17.7343 21.5286 17.567 21.5927 17.388C21.4063 17.3683 21.2179 17.3784 21.0347 17.4182C20.2098 17.564 19.3716 17.6213 18.5346 17.5889C15.6809 17.4615 12.9824 16.2537 10.9863 14.2103C8.99018 12.167 7.8458 9.44098 7.78519 6.58508C7.77617 5.06978 8.08372 3.56931 8.68813 2.17974C8.76398 2.0234 8.81159 1.85487 8.82876 1.68195C8.63069 1.69618 8.43695 1.74688 8.25731 1.83151C6.19598 2.68998 4.45505 4.17212 3.27869 6.07007C2.10233 7.96802 1.54954 10.1866 1.69785 12.4146Z" fill="white"/>
</svg>
