<svg width="18" height="18" viewBox="0 0 18 18" fill="none" xmlns="http://www.w3.org/2000/svg">
<path d="M8.23203 3.76227C8.23212 3.8265 8.24281 3.88336 8.26802 3.92933C8.29412 3.97691 8.3342 4.00981 8.38596 4.02657L8.38595 4.0266L8.38769 4.02709C8.50651 4.06087 8.62985 4.07572 8.75329 4.07112H9.77586C9.74104 4.11618 9.70085 4.1658 9.65519 4.22003L9.36816 4.54206L8.97888 4.96291L8.97888 4.9629L8.97846 4.96337L8.52569 5.46528L8.52552 5.46546C8.36886 5.64085 8.26537 5.75843 8.21566 5.81759L8.21566 5.81759L8.21535 5.81797C8.08702 5.97383 8.10298 6.20285 8.25173 6.33936L8.25157 6.33953L8.25544 6.34246C8.35721 6.41914 8.48325 6.45633 8.61026 6.44729H10.6563C10.7659 6.45538 10.8748 6.42304 10.9623 6.35632L10.9624 6.35641L10.9649 6.35422C11.0353 6.29272 11.0749 6.20327 11.0732 6.10984C11.0764 6.01324 11.0371 5.9201 10.9657 5.85494L10.9657 5.85486L10.9632 5.85281C10.8775 5.78437 10.7694 5.75045 10.66 5.75763H9.29948L10.6111 4.29329L10.6112 4.29315L10.7409 4.14938L10.741 4.14945L10.743 4.14692L10.8097 4.06268L10.8098 4.06272L10.8113 4.06064C10.8368 4.02468 10.8577 3.9856 10.8733 3.9444M8.23203 3.76227C8.22891 3.66793 8.26903 3.57739 8.34087 3.51623L8.34285 3.51455L8.34289 3.51461C8.42525 3.45155 8.52765 3.42045 8.63115 3.42709H10.3515C10.4859 3.42005 10.6199 3.44575 10.7422 3.50184L10.7466 3.50385L10.7465 3.50405C10.8517 3.56513 10.9119 3.68155 10.9012 3.80256C10.9006 3.85108 10.8912 3.89917 10.8733 3.9444M8.23203 3.76227C8.23202 3.76197 8.23202 3.76168 8.23202 3.76139H8.28202L8.23206 3.76318C8.23205 3.76288 8.23204 3.76257 8.23203 3.76227ZM10.8733 3.9444C10.8733 3.94452 10.8732 3.94464 10.8732 3.94475L10.8267 3.92635L10.8734 3.94405C10.8734 3.94416 10.8733 3.94428 10.8733 3.9444Z" fill="#47A1F1" stroke="#47A1F1" stroke-width="0.1"/>
<path d="M14.0721 7.64825L14.072 7.64832C14.1309 7.70166 14.1638 7.77787 14.1622 7.85725M14.0721 7.64825L13.9648 6.10243C13.978 6.0701 13.9852 6.03561 13.9858 6.00064L14.0355 6.006C14.0356 6.00524 14.0357 6.00449 14.0358 6.00374C14.0457 5.90316 13.9965 5.80582 13.9096 5.7541L13.9097 5.75386L13.9049 5.75164C13.8057 5.70606 13.6969 5.68519 13.5879 5.69092H12.2006C12.1159 5.68654 12.0323 5.71263 11.9652 5.76452L11.9651 5.76449L11.9635 5.76582C11.9035 5.81631 11.8698 5.89146 11.872 5.96982M14.0721 7.64825L14.0697 7.64633C13.9989 7.58967 13.9093 7.56198 13.8189 7.56869H12.7534L13.7841 6.41685L13.7844 6.41656L13.8894 6.30103L13.8895 6.30107L13.891 6.29924L13.9577 6.21851L13.9577 6.21858L13.9596 6.21601C13.9809 6.18665 13.9982 6.15469 14.0112 6.12089L14.0721 7.64825ZM14.1622 7.85725C14.164 7.93396 14.1325 8.00776 14.0755 8.05937L14.0722 8.06244L14.072 8.06228C14.0004 8.11615 13.9117 8.14215 13.8224 8.1355H12.1977C12.0948 8.1432 11.9926 8.11353 11.9097 8.05191L11.9045 8.04803L11.9048 8.04772C11.7898 7.93645 11.7772 7.75638 11.8755 7.63014C11.9166 7.57698 12.0008 7.47979 12.1268 7.33979L12.4774 6.94009L12.7791 6.58929L12.7797 6.5886L12.7797 6.58861L13.011 6.32925C13.0439 6.29089 13.0725 6.25692 13.097 6.22614H12.2987C12.1991 6.23063 12.0995 6.21936 12.0034 6.19273L11.9994 6.19161L11.9994 6.19144C11.9566 6.17559 11.9234 6.14698 11.9017 6.10688C11.8808 6.06815 11.8721 6.02141 11.872 5.96982M14.1622 7.85725C14.1622 7.8577 14.1622 7.85815 14.1622 7.8586L14.1122 7.85736L14.1621 7.85589C14.1622 7.85634 14.1622 7.85679 14.1622 7.85725ZM11.872 5.96982C11.872 5.96956 11.872 5.96931 11.872 5.96906H11.922L11.872 5.97061C11.872 5.97035 11.872 5.97008 11.872 5.96982Z" fill="#47A1F1" stroke="#47A1F1" stroke-width="0.1"/>
<path d="M15.0097 3.56572C15.0098 3.62996 15.0205 3.68682 15.0457 3.73279C15.0718 3.78037 15.1118 3.81327 15.1636 3.83002L15.1636 3.83005L15.1653 3.83055C15.2842 3.86432 15.4075 3.87918 15.5309 3.87457H16.5535C16.5187 3.91966 16.4784 3.96931 16.4328 4.02357L16.142 4.35288L15.7631 4.77384L15.7631 4.77388L15.3104 5.27575L15.3102 5.27593C15.1535 5.45132 15.05 5.5689 15.0003 5.62806L15.0003 5.62806L15 5.62845C14.8717 5.7843 14.8877 6.01332 15.0364 6.14984L15.0362 6.15001L15.0401 6.15293C15.1419 6.22962 15.2679 6.2668 15.3949 6.25777H17.4363C17.5467 6.27085 17.6581 6.24259 17.749 6.17841L17.7491 6.17863L17.753 6.17523C17.8235 6.11372 17.8631 6.02428 17.8614 5.93084C17.8645 5.83425 17.8252 5.74111 17.7539 5.67595L17.7539 5.67587L17.7514 5.67381C17.6657 5.60537 17.5575 5.57146 17.4482 5.57864H16.0771L17.3887 4.11429L17.3889 4.11415L17.5186 3.97039L17.5186 3.97042L17.52 3.96877L17.6042 3.86698L17.6043 3.86707L17.6065 3.86409C17.632 3.82813 17.6529 3.78905 17.6685 3.74784C17.6864 3.70261 17.6958 3.65453 17.6964 3.60602C17.7071 3.48501 17.6469 3.36858 17.5417 3.3075L17.5418 3.3073L17.5374 3.3053C17.4151 3.24919 17.2811 3.22355 17.1467 3.23054H15.4088C15.3053 3.22391 15.2029 3.255 15.1205 3.31806L15.1205 3.31801L15.1185 3.31969C15.0467 3.38084 15.0066 3.47138 15.0097 3.56572ZM15.0097 3.56572C15.0097 3.56543 15.0097 3.56514 15.0097 3.56484H15.0597L15.0097 3.56664C15.0097 3.56633 15.0097 3.56603 15.0097 3.56572Z" fill="#47A1F1" stroke="#47A1F1" stroke-width="0.1"/>
<path d="M16.6172 11.5192L16.6183 11.5203L16.6183 11.5203C16.7596 11.6696 16.7954 11.89 16.7086 12.0762M16.6172 11.5192L6.41368 0.898093C6.28525 0.837331 6.1371 0.83404 6.00614 0.888815L6.06402 1.0272L6.00703 0.888448C1.75977 2.63313 -0.268988 7.49058 1.47569 11.7378C3.22038 15.9851 8.07782 18.0139 12.3251 16.2692L12.2681 16.1304L12.3251 16.2692C14.2622 15.4734 15.8277 13.9761 16.7086 12.0762M16.6172 11.5192C16.4745 11.3715 16.2561 11.3258 16.0662 11.404L16.0659 11.4041M16.6172 11.5192L16.0659 11.4041M16.7086 12.0762C16.7086 12.0763 16.7085 12.0763 16.7085 12.0764L16.5726 12.013L16.7087 12.0761C16.7086 12.0761 16.7086 12.0762 16.7086 12.0762ZM16.0659 11.4041C12.3383 12.9472 8.06551 11.1764 6.52236 7.44871M16.0659 11.4041L6.52236 7.44871M6.52236 7.44871C5.73882 5.55592 5.78606 3.42107 6.65255 1.56482M6.52236 7.44871L6.65255 1.56482M6.65255 1.56482C6.7706 1.31476 6.66368 1.01635 6.4137 0.898104L6.65255 1.56482ZM1.85605 8.57916C1.85536 12.6192 5.12978 15.8949 9.1698 15.8959C11.5772 15.8882 13.8191 14.7019 15.1814 12.7365C14.5599 12.8821 13.9233 12.9558 13.2842 12.9559C8.69062 12.9561 4.96658 9.23243 4.96636 4.63885M1.85605 8.57916L5.46946 2.27081C5.40522 2.30849 5.34169 2.34707 5.27888 2.38653M1.85605 8.57916C1.85646 6.05521 3.15688 3.71967 5.27888 2.38653M1.85605 8.57916L5.34332 2.17116C5.32085 2.24269 5.29937 2.31448 5.27888 2.38653M4.96636 4.63885L5.11636 4.63884L4.96636 4.63904C4.96636 4.63897 4.96636 4.63891 4.96636 4.63885ZM4.96636 4.63885C4.96539 3.87657 5.07075 3.11853 5.27888 2.38653" fill="#47A1F1" stroke="#47A1F1" stroke-width="0.3"/>
</svg>
