<svg width="27" height="27" viewBox="0 0 27 27" fill="none" xmlns="http://www.w3.org/2000/svg">
<path d="M14.7223 19.4566C14.7223 19.8085 15.0075 20.0938 15.3594 20.0938C15.7112 20.0938 15.9965 19.8085 15.9965 19.4566V13.5C15.9965 13.1481 15.7112 12.8629 15.3594 12.8629C15.0075 12.8629 14.7223 13.1481 14.7223 13.5V19.4566Z" fill="#6BB5F6" stroke="#6BB5F6" stroke-width="0.2"/>
<path d="M23.9737 12.8629H12.0108C11.5562 12.8629 11.1346 13.0066 10.7888 13.2505C10.3836 12.1562 9.32959 11.3737 8.0956 11.3737C6.5125 11.3737 5.22476 12.6615 5.22476 14.2446C5.22476 14.8353 5.40459 15.3845 5.71159 15.8412H2.17422V9.03253C2.17422 8.68067 1.88897 8.39542 1.53711 8.39542C1.18525 8.39542 0.9 8.68067 0.9 9.03253V25.4629C0.9 25.8148 1.18525 26.1 1.53711 26.1C1.88897 26.1 2.17422 25.8148 2.17422 25.4629V23.0721H24.8258V25.4629C24.8258 25.8148 25.111 26.1 25.4629 26.1C25.8148 26.1 26.1 25.8148 26.1 25.4629V14.9892C26.1 13.8167 25.1462 12.8629 23.9737 12.8629ZM11.1588 14.9892C11.1588 14.5194 11.5411 14.1371 12.0108 14.1371H23.9737C24.4435 14.1371 24.8258 14.5194 24.8258 14.9892V18.8195H11.1588V14.9892ZM6.49897 14.2446C6.49897 13.3643 7.21529 12.648 8.0956 12.648C8.97588 12.648 9.69224 13.3643 9.69224 14.2446C9.69224 15.1249 8.97592 15.8412 8.0956 15.8412C7.21529 15.8412 6.49897 15.1249 6.49897 14.2446ZM2.17422 21.7979V17.1154H9.88457V19.4567C9.88457 19.8085 10.1698 20.0938 10.5217 20.0938H24.8258V21.7979H2.17422Z" fill="#6BB5F6" stroke="#6BB5F6" stroke-width="0.2"/>
<path d="M12.0106 9.62001H9.03227C8.77459 9.62001 8.54228 9.46479 8.44365 9.22674C8.34501 8.98869 8.39951 8.71462 8.58173 8.5324L10.4724 6.64169H9.03227C8.68041 6.64169 8.39516 6.35644 8.39516 6.00458C8.39516 5.65272 8.68041 5.36747 9.03227 5.36747H12.0106C12.2683 5.36747 12.5006 5.52269 12.5992 5.76079M12.0106 9.62001L10.5704 8.34584M12.0106 9.62001C12.3624 9.62001 12.6477 9.33476 12.6477 8.98295C12.6477 8.63109 12.3625 8.34584 12.0106 8.34584H10.5704M12.0106 9.62001L10.5704 8.34584M12.5992 5.76079L12.5068 5.79906L12.5992 5.76078C12.5992 5.76078 12.5992 5.76079 12.5992 5.76079ZM12.5992 5.76079C12.6979 5.99884 12.6434 6.27291 12.4611 6.45512L10.5704 8.34584" fill="#6BB5F6" stroke="#6BB5F6" stroke-width="0.2"/>
<path d="M14.4006 4.75922L14.4006 4.75921C14.3021 4.52116 14.3566 4.2471 14.5388 4.06489L14.6095 4.1356L14.5388 4.06488L16.4295 2.17422H14.9893C14.6374 2.17422 14.3522 1.88897 14.3522 1.53711C14.3522 1.18525 14.6374 0.9 14.9893 0.9H17.9676C18.2253 0.9 18.4576 1.05523 18.5562 1.29332L18.5562 1.29333C18.6548 1.53138 18.6003 1.80544 18.4181 1.98765L16.5274 3.87837H17.9675C18.3194 3.87837 18.6046 4.16361 18.6047 4.51546L14.4006 4.75922ZM14.4006 4.75922C14.4993 4.99731 14.7316 5.15254 14.9893 5.15254H17.9676M14.4006 4.75922L17.9676 5.15254M17.9676 5.15254C18.3194 5.15254 18.6047 4.8673 18.6047 4.51548L17.9676 5.15254Z" fill="#6BB5F6" stroke="#6BB5F6" stroke-width="0.2"/>
</svg>
