<svg width="18" height="18" viewBox="0 0 18 18" fill="none" xmlns="http://www.w3.org/2000/svg">
<path d="M15.75 4.48499C13.2525 4.23749 10.74 4.10999 8.235 4.10999C6.75 4.10999 5.265 4.18499 3.78 4.33499L2.25 4.48499" stroke="white" stroke-width="1.5" stroke-linecap="round" stroke-linejoin="round"/>
<path d="M6.375 3.72747L6.54 2.74497C6.66 2.03247 6.75 1.49997 8.0175 1.49997H9.9825C11.25 1.49997 11.3475 2.06247 11.46 2.75247L11.625 3.72747" stroke="white" stroke-width="1.5" stroke-linecap="round" stroke-linejoin="round"/>
<path d="M14.1373 6.85504L13.6498 14.4075C13.5673 15.585 13.4998 16.5 11.4073 16.5H6.5923C4.4998 16.5 4.4323 15.585 4.3498 14.4075L3.8623 6.85504" stroke="white" stroke-width="1.5" stroke-linecap="round" stroke-linejoin="round"/>
<path d="M7.74805 12.375H10.2455" stroke="white" stroke-width="1.5" stroke-linecap="round" stroke-linejoin="round"/>
<path d="M7.125 9.37497H10.875" stroke="white" stroke-width="1.5" stroke-linecap="round" stroke-linejoin="round"/>
</svg>
